<svg width="40" height="40" viewBox="0 0 40 40" fill="none" xmlns="http://www.w3.org/2000/svg">
<rect width="40" height="40" rx="8" fill="#C12B33"/>
<path d="M23.5858 10.5858L24.1161 10.0555L23.5858 10.5858ZM28.4142 15.4142L28.9445 14.8839L28.4142 15.4142ZM10.25 12V28H11.75V12H10.25ZM13 30.75H27V29.25H13V30.75ZM29.75 28V16.8284H28.25V28H29.75ZM28.9445 14.8839L24.1161 10.0555L23.0555 11.1161L27.8839 15.9445L28.9445 14.8839ZM22.1716 9.25H13V10.75H22.1716V9.25ZM24.1161 10.0555C23.6004 9.53973 22.9009 9.25 22.1716 9.25V10.75C22.5031 10.75 22.821 10.8817 23.0555 11.1161L24.1161 10.0555ZM29.75 16.8284C29.75 16.0991 29.4603 15.3996 28.9445 14.8839L27.8839 15.9445C28.1183 16.179 28.25 16.4969 28.25 16.8284H29.75ZM27 30.75C28.5188 30.75 29.75 29.5188 29.75 28H28.25C28.25 28.6904 27.6904 29.25 27 29.25V30.75ZM10.25 28C10.25 29.5188 11.4812 30.75 13 30.75V29.25C12.3096 29.25 11.75 28.6904 11.75 28H10.25ZM11.75 12C11.75 11.3096 12.3096 10.75 13 10.75V9.25C11.4812 9.25 10.25 10.4812 10.25 12H11.75Z" fill="white"/>
<path d="M15 20H23.5" stroke="white" stroke-width="1.5" stroke-linecap="round"/>
<path d="M15 24H23.5" stroke="white" stroke-width="1.5" stroke-linecap="round"/>
</svg>
