<svg width="11" height="9" viewBox="0 0 11 9" fill="none" xmlns="http://www.w3.org/2000/svg">
<path d="M1.7093 4.02989C1.52746 3.82207 1.21157 3.80102 1.00376 3.98286C0.795937 4.1647 0.774878 4.48058 0.956719 4.6884L1.7093 4.02989ZM10.5262 1.73472C10.6968 1.51759 10.6591 1.20326 10.4419 1.03265C10.2248 0.862046 9.91046 0.899765 9.73985 1.1169L10.5262 1.73472ZM0.956719 4.6884L3.60261 7.71227L4.35519 7.05377L1.7093 4.02989L0.956719 4.6884ZM5.87676 7.65215L10.5262 1.73472L9.73985 1.1169L5.09044 7.03433L5.87676 7.65215ZM3.60261 7.71227C4.21218 8.40892 5.30485 8.38004 5.87676 7.65215L5.09044 7.03433C4.90554 7.26966 4.55227 7.279 4.35519 7.05377L3.60261 7.71227Z" fill="#888B8E"/>
</svg>
