<svg width="16" height="16" viewBox="0 0 16 16" fill="none" xmlns="http://www.w3.org/2000/svg">
<path d="M10.3905 1.7239L10.7441 1.37034L10.3905 1.7239ZM13.6095 4.94285L13.2559 5.2964L13.6095 4.94285ZM1.5 2.66671V13.3334H2.5V2.66671H1.5ZM3.33333 15.1667H12.6667V14.1667H3.33333V15.1667ZM14.5 13.3334V5.88566H13.5V13.3334H14.5ZM13.963 4.5893L10.7441 1.37034L10.037 2.07745L13.2559 5.2964L13.963 4.5893ZM9.44772 0.833374H3.33333V1.83337H9.44772V0.833374ZM10.7441 1.37034C10.4003 1.02653 9.93395 0.833374 9.44772 0.833374V1.83337C9.66873 1.83337 9.88069 1.92117 10.037 2.07745L10.7441 1.37034ZM14.5 5.88566C14.5 5.39943 14.3068 4.93311 13.963 4.5893L13.2559 5.2964C13.4122 5.45268 13.5 5.66465 13.5 5.88566H14.5ZM12.6667 15.1667C13.6792 15.1667 14.5 14.3459 14.5 13.3334H13.5C13.5 13.7936 13.1269 14.1667 12.6667 14.1667V15.1667ZM1.5 13.3334C1.5 14.3459 2.32081 15.1667 3.33333 15.1667V14.1667C2.8731 14.1667 2.5 13.7936 2.5 13.3334H1.5ZM2.5 2.66671C2.5 2.20647 2.8731 1.83337 3.33333 1.83337V0.833374C2.32081 0.833374 1.5 1.65419 1.5 2.66671H2.5Z" fill="#4E5358"/>
<path d="M4.66699 8H10.3337" stroke="#4E5358" stroke-linecap="round"/>
<path d="M4.66699 10.6667H10.3337" stroke="#4E5358" stroke-linecap="round"/>
</svg>
