<svg width="24" height="24" viewBox="0 0 24 24" fill="none" xmlns="http://www.w3.org/2000/svg">
<path d="M1.28849 11.7628C1.1575 12.1558 1.36987 12.5805 1.76283 12.7115C2.15579 12.8425 2.58053 12.6301 2.71151 12.2372L1.28849 11.7628ZM21.2885 12.2372C21.4195 12.6301 21.8442 12.8425 22.2372 12.7115C22.6301 12.5805 22.8425 12.1558 22.7115 11.7628L21.2885 12.2372ZM2.71151 12.2372C3.14868 10.9257 4.40427 9.28988 6.14079 7.97252C7.86895 6.6615 9.96336 5.75 12 5.75V4.25C9.53664 4.25 7.13105 5.3385 5.23421 6.77748C3.34573 8.21012 1.85132 10.0743 1.28849 11.7628L2.71151 12.2372ZM12 5.75C14.0366 5.75 16.1311 6.6615 17.8592 7.97252C19.5957 9.28988 20.8513 10.9257 21.2885 12.2372L22.7115 11.7628C22.1487 10.0743 20.6543 8.21012 18.7658 6.77748C16.8689 5.3385 14.4634 4.25 12 4.25V5.75Z" fill="#888B8E"/>
<path d="M22.7115 12.2372C22.8425 11.8442 22.6301 11.4195 22.2372 11.2885C21.8442 11.1575 21.4195 11.3699 21.2885 11.7628L22.7115 12.2372ZM2.71151 11.7628C2.58053 11.3699 2.15579 11.1575 1.76283 11.2885C1.36987 11.4195 1.1575 11.8442 1.28849 12.2372L2.71151 11.7628ZM21.2885 11.7628C20.8513 13.0743 19.5957 14.7101 17.8592 16.0275C16.1311 17.3385 14.0366 18.25 12 18.25L12 19.75C14.4634 19.75 16.8689 18.6615 18.7658 17.2225C20.6543 15.7899 22.1487 13.9257 22.7115 12.2372L21.2885 11.7628ZM12 18.25C9.96336 18.25 7.86895 17.3385 6.14079 16.0275C4.40427 14.7101 3.14868 13.0743 2.71151 11.7628L1.28849 12.2372C1.85132 13.9257 3.34573 15.7899 5.23421 17.2225C7.13105 18.6615 9.53664 19.75 12 19.75L12 18.25Z" fill="#888B8E"/>
<path d="M14.7472 11.9472C14.7472 13.4812 13.5197 14.7499 12.001 14.7499C10.4822 14.7499 9.24609 13.4812 9.24609 11.9472C9.24609 10.4132 10.4822 9.24988 12.001 9.24988C13.5197 9.24988 14.7472 10.4132 14.7472 11.9472Z" stroke="#888B8E" stroke-width="1.5"/>
</svg>
