<svg width="144" height="145" viewBox="0 0 144 145" fill="none" xmlns="http://www.w3.org/2000/svg">
<path d="M2 35.8038V19.488C2 10.1058 9.60577 2.5 18.988 2.5H36.0789" stroke="#E32A31" stroke-width="3.7751" stroke-linecap="round" stroke-linejoin="round"/>
<path d="M2 109.196V125.512C2 134.894 9.60577 142.5 18.988 142.5H36.0789" stroke="#E32A31" stroke-width="3.7751" stroke-linecap="round" stroke-linejoin="round"/>
<path d="M142 35.8038V19.488C142 10.1058 134.394 2.5 125.012 2.5H107.921" stroke="#E32A31" stroke-width="3.7751" stroke-linecap="round" stroke-linejoin="round"/>
<path d="M142 109.196V125.512C142 134.894 134.394 142.5 125.012 142.5H107.921" stroke="#E32A31" stroke-width="3.7751" stroke-linecap="round" stroke-linejoin="round"/>
<path d="M75.0707 40.4297V76.8172C75.0707 81.2452 71.4968 84.8348 67.0882 84.8348M43.7549 99.0198C55.7977 122.691 89.6402 122.479 102.088 99.0198" stroke="#E32A31" stroke-width="3.7751" stroke-linecap="round" stroke-linejoin="round"/>
<path d="M108.842 41.6631V53.3811M43.4473 53.3811V41.6631" stroke="#E32A31" stroke-width="3.7751" stroke-linecap="round" stroke-linejoin="round"/>
</svg>
