<svg width="16" height="16" viewBox="0 0 16 16" fill="none" xmlns="http://www.w3.org/2000/svg">
<path d="M1.5 6.44945V13.3334H2.5V6.44945H1.5ZM3.33333 15.1667H12.6667V14.1667H3.33333V15.1667ZM14.5 13.3334V6.44945H13.5V13.3334H14.5ZM13.7579 4.97626L9.09125 1.51947L8.49602 2.32303L13.1627 5.77982L13.7579 4.97626ZM6.90875 1.51947L2.24208 4.97626L2.83731 5.77982L7.50398 2.32303L6.90875 1.51947ZM9.09125 1.51947C8.44299 1.03928 7.55701 1.03928 6.90875 1.51947L7.50398 2.32303C7.79864 2.10476 8.20136 2.10476 8.49602 2.32303L9.09125 1.51947ZM14.5 6.44945C14.5 5.86856 14.2247 5.32203 13.7579 4.97626L13.1627 5.77982C13.3749 5.93699 13.5 6.18541 13.5 6.44945H14.5ZM12.6667 15.1667C13.6792 15.1667 14.5 14.3459 14.5 13.3334H13.5C13.5 13.7936 13.1269 14.1667 12.6667 14.1667V15.1667ZM1.5 13.3334C1.5 14.3459 2.32081 15.1667 3.33333 15.1667V14.1667C2.8731 14.1667 2.5 13.7936 2.5 13.3334H1.5ZM2.5 6.44945C2.5 6.18541 2.62514 5.93699 2.83731 5.77982L2.24208 4.97626C1.7753 5.32203 1.5 5.86856 1.5 6.44945H2.5Z" fill="#4E5358"/>
<path d="M5.16699 14.6667C5.16699 14.9428 5.39085 15.1667 5.66699 15.1667C5.94313 15.1667 6.16699 14.9428 6.16699 14.6667H5.16699ZM9.83366 14.6667C9.83366 14.9428 10.0575 15.1667 10.3337 15.1667C10.6098 15.1667 10.8337 14.9428 10.8337 14.6667H9.83366ZM6.16699 14.6667V10H5.16699V14.6667H6.16699ZM6.66699 9.5H9.33366V8.5H6.66699V9.5ZM9.83366 10V14.6667H10.8337V10H9.83366ZM9.33366 9.5C9.6098 9.5 9.83366 9.72386 9.83366 10H10.8337C10.8337 9.17157 10.1621 8.5 9.33366 8.5V9.5ZM6.16699 10C6.16699 9.72386 6.39085 9.5 6.66699 9.5V8.5C5.83857 8.5 5.16699 9.17157 5.16699 10H6.16699Z" fill="#4E5358"/>
</svg>
