<svg width="19" height="20" viewBox="0 0 19 20" fill="none" xmlns="http://www.w3.org/2000/svg">
<path d="M17.5398 9.99989C17.5398 5.36027 13.7787 1.59912 9.13905 1.59912C4.49943 1.59912 0.738281 5.36027 0.738281 9.99989C0.738281 14.6395 4.49943 18.4007 9.13905 18.4007C13.7787 18.4007 17.5398 14.6395 17.5398 9.99989Z" stroke="#4E5358" stroke-width="1.26012"/>
<path d="M8.50861 13.9902C8.50861 14.3382 8.7907 14.6203 9.13867 14.6203C9.48664 14.6203 9.76873 14.3382 9.76873 13.9902H8.50861ZM9.76873 9.78985C9.76873 9.44188 9.48664 9.15979 9.13867 9.15979C8.7907 9.15979 8.50861 9.44188 8.50861 9.78985H9.76873ZM9.76873 13.9902V9.78985H8.50861V13.9902H9.76873Z" fill="#4E5358"/>
<path d="M9.13891 6.0093C9.60287 6.0093 9.97898 6.38541 9.97898 6.84938C9.97898 7.31334 9.60287 7.68945 9.13891 7.68945C8.67494 7.68945 8.29883 7.31334 8.29883 6.84938C8.29883 6.38541 8.67494 6.0093 9.13891 6.0093Z" fill="#4E5358"/>
</svg>
