<svg width="24" height="24" viewBox="0 0 24 24" fill="none" xmlns="http://www.w3.org/2000/svg">
<path d="M22 12C22 6.47715 17.5228 2 12 2C6.47715 2 2 6.47715 2 12C2 17.5228 6.47715 22 12 22C17.5228 22 22 17.5228 22 12Z" stroke="white" stroke-width="1.5"/>
<path d="M11.25 16.75C11.25 17.1642 11.5858 17.5 12 17.5C12.4142 17.5 12.75 17.1642 12.75 16.75H11.25ZM12.75 11.75C12.75 11.3358 12.4142 11 12 11C11.5858 11 11.25 11.3358 11.25 11.75H12.75ZM12.75 16.75V11.75H11.25V16.75H12.75Z" fill="white"/>
<path d="M12 7.25C12.5523 7.25 13 7.69772 13 8.25C13 8.80228 12.5523 9.25 12 9.25C11.4477 9.25 11 8.80228 11 8.25C11 7.69772 11.4477 7.25 12 7.25Z" fill="white"/>
</svg>
