<svg width="64" height="67" viewBox="0 0 64 67" fill="none" xmlns="http://www.w3.org/2000/svg">
<path d="M63.684 6.57886C63.684 6.57886 62.982 5.28363 61.8683 3.49512C61.8683 3.49512 58.2913 6.16729 58.3185 6.01901C58.3458 5.87072 63.684 6.57886 63.684 6.57886Z" fill="#231F20"/>
<path d="M63.6836 6.72987H63.6624C61.7801 6.47869 58.7085 6.10647 58.3725 6.15186C58.2848 6.18817 58.2575 6.17002 58.2273 6.15186C58.2012 6.13423 58.1807 6.10943 58.1683 6.08043C58.156 6.05144 58.1523 6.01949 58.1577 5.98844C58.1577 5.94607 58.1758 5.90371 58.2757 5.8795C58.4815 5.79779 60.5272 4.2998 61.765 3.37377C61.7816 3.36118 61.8007 3.35224 61.8211 3.34755C61.8414 3.34285 61.8625 3.34251 61.883 3.34653C61.9034 3.34987 61.9229 3.35754 61.9401 3.36902C61.9573 3.3805 61.9719 3.39553 61.9829 3.41311C63.0995 5.18649 63.7986 6.49382 63.8168 6.50593C63.8294 6.529 63.8358 6.55497 63.8353 6.58127C63.8348 6.60756 63.8275 6.63329 63.8141 6.65589C63.8006 6.6785 63.7815 6.69721 63.7586 6.71019C63.7358 6.72316 63.7099 6.72994 63.6836 6.72987ZM58.8416 5.87042C59.5013 5.90673 60.8056 6.04897 63.3961 6.39093C63.1449 5.94002 62.579 4.95044 61.8043 3.71573C60.1883 4.92623 59.3258 5.55266 58.8507 5.87042H58.8416Z" fill="#231F20"/>
<path d="M16.2865 60.5529L14.501 57.575L16.9734 55.3417L16.2865 60.5529Z" fill="#231F20"/>
<path d="M16.2863 60.7038C16.2603 60.7034 16.2348 60.6966 16.2121 60.6839C16.1894 60.6712 16.1702 60.6531 16.1562 60.6312L14.3707 57.6534C14.3528 57.623 14.346 57.5874 14.3515 57.5526C14.357 57.5178 14.3745 57.486 14.401 57.4627L16.8704 55.2294C16.8935 55.2085 16.9224 55.1953 16.9533 55.1915C16.9841 55.1877 17.0154 55.1935 17.0429 55.2082C17.0699 55.2231 17.0919 55.2457 17.1059 55.2733C17.1199 55.3008 17.1254 55.3319 17.1216 55.3625L16.4376 60.5646C16.4338 60.5963 16.42 60.626 16.3982 60.6493C16.3765 60.6727 16.3479 60.6886 16.3166 60.6948L16.2863 60.7038ZM14.6945 57.605L16.2076 60.1016L16.7826 55.7287L14.6945 57.605Z" fill="#231F20"/>
<path d="M17.4461 61.1696L46.1954 65.2641C46.7851 65.3421 47.3832 65.2074 47.8824 64.884C48.3816 64.5606 48.7492 64.0698 48.919 63.4998L63.7961 7.84711C64.0987 6.69411 63.3633 5.68032 62.1437 5.58045L32.8285 3.21696C32.249 3.18848 31.6767 3.35562 31.2036 3.6915C30.7305 4.02739 30.3841 4.51253 30.2199 5.06902L15.9451 58.8817C15.871 59.1315 15.8523 59.3944 15.8902 59.6521C15.9281 59.9098 16.0218 60.1561 16.1647 60.3739C16.3076 60.5917 16.4963 60.7758 16.7176 60.9132C16.9389 61.0506 17.1875 61.1381 17.4461 61.1696Z" fill="#231F20"/>
<path d="M46.5129 65.4492C46.3965 65.4486 46.2802 65.4405 46.1649 65.425L17.4155 61.3275C17.1375 61.2933 16.8701 61.1996 16.6314 61.0529C16.3928 60.9062 16.1885 60.7098 16.0325 60.4771C15.8774 60.238 15.7753 59.9684 15.733 59.6866C15.6908 59.4047 15.7093 59.117 15.7874 58.8429L30.0622 5.03931C30.2368 4.44823 30.6044 3.93271 31.1063 3.57505C31.6082 3.2174 32.2155 3.03824 32.8312 3.06619L62.1465 5.42969C62.4436 5.4474 62.7333 5.53033 62.9948 5.67259C63.2563 5.81485 63.4833 6.01296 63.6596 6.25283C63.8218 6.48872 63.9293 6.75782 63.9743 7.04052C64.0193 7.32322 64.0007 7.6124 63.9198 7.887L49.0428 63.5397C48.8809 64.0868 48.5478 64.5675 48.0924 64.9112C47.637 65.255 47.0834 65.4435 46.5129 65.4492ZM17.4609 61.0279L46.2102 65.1254C46.7645 65.1994 47.3271 65.0733 47.7968 64.77C48.2666 64.4666 48.6129 64.0057 48.7735 63.4701L63.6384 7.82043C63.7085 7.58854 63.7256 7.34385 63.6884 7.10446C63.6513 6.86507 63.5607 6.63711 63.4235 6.43743C63.2721 6.23191 63.0767 6.06278 62.8515 5.94237C62.6264 5.82196 62.3773 5.7533 62.1222 5.74139L32.807 3.36882C32.2621 3.34019 31.7235 3.49647 31.2786 3.81233C30.8336 4.12818 30.5085 4.58507 30.3557 5.10891L16.09 58.9216C16.0224 59.1542 16.0055 59.3985 16.0405 59.6382C16.0755 59.8778 16.1615 60.1071 16.2928 60.3107C16.4261 60.507 16.5998 60.6726 16.8023 60.7963C17.0048 60.92 17.2314 60.999 17.467 61.0279H17.4609Z" fill="#231F20"/>
<path d="M15.5756 58.108L44.325 62.2025C44.9145 62.2793 45.512 62.144 46.011 61.8208C46.5099 61.4976 46.8777 61.0076 47.0486 60.4382L61.9226 4.78554C62.2252 3.63254 61.4898 2.61875 60.2703 2.51888L30.949 0.155383C30.3692 0.127296 29.7967 0.294524 29.3232 0.630304C28.8497 0.966084 28.5026 1.451 28.3373 2.00745L14.0716 55.8111C13.9959 56.0616 13.9761 56.3257 14.0135 56.5847C14.0508 56.8437 14.1445 57.0914 14.2879 57.3104C14.4312 57.5293 14.6208 57.7142 14.8433 57.852C15.0658 57.9898 15.3158 58.0772 15.5756 58.108Z" fill="white"/>
<path d="M44.642 62.3801C44.5256 62.3796 44.4094 62.3715 44.294 62.3559L15.5447 58.2584C15.2666 58.2242 14.9992 58.1305 14.7606 57.9838C14.5219 57.8371 14.3177 57.6407 14.1617 57.408C14.0064 57.169 13.9042 56.8994 13.8619 56.6175C13.8196 56.3356 13.8383 56.0479 13.9166 55.7738L28.1944 1.97019C28.3692 1.37969 28.737 0.864903 29.2391 0.508261C29.7411 0.151619 30.3483 -0.0262488 30.9634 0.00313464L60.2726 2.36663C60.5723 2.38236 60.8649 2.46434 61.1291 2.60667C61.3934 2.74901 61.6228 2.94815 61.8008 3.18977C61.9622 3.42603 62.0693 3.69511 62.1143 3.97766C62.1593 4.26022 62.1411 4.54924 62.0611 4.82395L47.1841 60.4766C47.0205 61.0246 46.6851 61.5054 46.2274 61.8481C45.7697 62.1909 45.2139 62.3774 44.642 62.3801ZM30.7728 0.299707C30.2579 0.313966 29.7606 0.490465 29.3519 0.804026C28.9433 1.11759 28.6441 1.55219 28.497 2.04585L14.2192 55.8495C14.1516 56.082 14.1347 56.3264 14.1697 56.566C14.2047 56.8057 14.2907 57.035 14.4219 57.2385C14.5552 57.4349 14.7289 57.6004 14.9315 57.7242C15.134 57.8479 15.3606 57.9268 15.5961 57.9558L44.3455 62.0533C44.8983 62.1249 45.4587 61.9978 45.9265 61.6946C46.3943 61.3914 46.7392 60.9319 46.8996 60.3979L61.7676 4.74829C61.8371 4.51632 61.8538 4.27176 61.8166 4.03247C61.7795 3.79319 61.6893 3.56525 61.5527 3.36529C61.4009 3.15939 61.205 2.99003 60.9794 2.8696C60.7537 2.74917 60.5039 2.68072 60.2484 2.66926L30.9362 0.305759L30.7728 0.299707Z" fill="#231F20"/>
<path d="M59.075 8.44622L29.0637 5.84668L17.5488 49.2612L47.1213 53.1923L59.075 8.44622Z" fill="#C12B33"/>
<path d="M27.4536 57.783L33.0642 58.5728C33.4206 58.6167 33.7809 58.5324 34.0808 58.335C34.3807 58.1377 34.6007 57.8401 34.7014 57.4955L35.2583 55.4043C35.3049 55.2456 35.3159 55.0784 35.2906 54.9149C35.2653 54.7513 35.2042 54.5954 35.1118 54.4581C35.0193 54.3208 34.8977 54.2057 34.7556 54.1207C34.6136 54.0358 34.4545 53.9833 34.2899 53.9669L28.6731 53.2043C28.3202 53.1657 27.9649 53.2525 27.6695 53.4494C27.374 53.6464 27.1573 53.941 27.0571 54.2816L26.5033 56.3546C26.4567 56.5115 26.4451 56.6767 26.4694 56.8386C26.4937 57.0005 26.5533 57.155 26.644 57.2913C26.7346 57.4276 26.8541 57.5423 26.9941 57.6272C27.134 57.7122 27.2908 57.7654 27.4536 57.783Z" fill="white"/>
<path d="M33.2514 58.7485C33.1815 58.7495 33.1116 58.7445 33.0426 58.7334L27.4319 57.9466C27.2481 57.9254 27.0712 57.8643 26.9134 57.7676C26.7556 57.6709 26.6209 57.5409 26.5186 57.3867C26.4163 57.2325 26.3489 57.0578 26.3211 56.8749C26.2933 56.692 26.3057 56.5052 26.3576 56.3275L26.9084 54.2546C27.0186 53.8782 27.2581 53.5528 27.5848 53.3357C27.9114 53.1187 28.3042 53.024 28.6939 53.0683L34.3106 53.8279C34.4974 53.8499 34.6773 53.9119 34.8382 54.0095C34.999 54.1072 35.1369 54.2382 35.2427 54.3938C35.3437 54.5491 35.4102 54.7243 35.4379 54.9075C35.4656 55.0907 35.4537 55.2777 35.4031 55.456L34.8523 57.538C34.7518 57.8855 34.5415 58.1911 34.253 58.4093C33.9645 58.6275 33.6131 58.7465 33.2514 58.7485ZM27.4743 57.647L33.085 58.4338C33.4043 58.4727 33.7271 58.397 33.9958 58.2202C34.2646 58.0434 34.4619 57.7771 34.5527 57.4684L35.1126 55.3773C35.1513 55.2403 35.1605 55.0966 35.1396 54.9558C35.1187 54.815 35.0683 54.6801 34.9915 54.5602C34.9089 54.4412 34.802 54.3411 34.6779 54.2665C34.5537 54.1919 34.4151 54.1445 34.2713 54.1275L28.6515 53.3679C28.3352 53.3315 28.0162 53.4082 27.751 53.5843C27.4857 53.7604 27.2913 54.0246 27.202 54.3302L26.6512 56.4062C26.6098 56.5424 26.5991 56.686 26.6197 56.8267C26.6403 56.9675 26.6918 57.102 26.7704 57.2205C26.8491 57.3391 26.953 57.4388 27.0746 57.5125C27.1963 57.5863 27.3328 57.6322 27.4743 57.647Z" fill="#E6E7E8"/>
<path d="M50.196 4.71577L41.6227 3.99855C41.6028 3.99676 41.5835 3.99108 41.5658 3.98182C41.5481 3.97256 41.5325 3.95992 41.5197 3.9446C41.5069 3.92929 41.4972 3.9116 41.4913 3.89256C41.4853 3.87352 41.4832 3.85349 41.485 3.83362C41.4868 3.81375 41.4925 3.79442 41.5017 3.77675C41.511 3.75908 41.5236 3.7434 41.5389 3.73061C41.5543 3.71783 41.5719 3.70818 41.591 3.70223C41.61 3.69628 41.6301 3.69414 41.6499 3.69592L50.2202 4.41012C50.2604 4.41012 50.2989 4.42606 50.3272 4.45444C50.3556 4.48281 50.3716 4.5213 50.3716 4.56143C50.3716 4.60156 50.3556 4.64005 50.3272 4.66842C50.2989 4.6968 50.2604 4.71274 50.2202 4.71274L50.196 4.71577Z" fill="#D1D3D4"/>
<path d="M40.4331 3.89785L39.2952 3.80403C39.2754 3.80252 39.2562 3.79706 39.2385 3.78797C39.2209 3.77888 39.2053 3.76635 39.1926 3.75111C39.1799 3.73587 39.1704 3.71824 39.1646 3.69926C39.1588 3.68028 39.1569 3.66034 39.159 3.64062C39.1629 3.60074 39.1821 3.56393 39.2126 3.53795C39.2431 3.51197 39.2825 3.49887 39.3224 3.50141L40.4573 3.59825C40.4974 3.59825 40.5359 3.61419 40.5643 3.64257C40.5927 3.67095 40.6086 3.70943 40.6086 3.74956C40.6086 3.78969 40.5927 3.82818 40.5643 3.85656C40.5359 3.88493 40.4974 3.90087 40.4573 3.90087L40.4331 3.89785Z" fill="#D1D3D4"/>
<path d="M32.1527 13.3248C32.1248 13.3248 32.0973 13.3172 32.0733 13.3028C32.0493 13.2885 32.0297 13.2678 32.0166 13.2431L29.9436 9.23941C29.9342 9.22198 29.9283 9.20284 29.9265 9.18313C29.9246 9.16341 29.9266 9.14352 29.9326 9.12462C29.9385 9.10572 29.9481 9.0882 29.9609 9.07309C29.9738 9.05798 29.9895 9.04559 30.0071 9.03665C30.0248 9.02718 30.0441 9.02131 30.0641 9.01938C30.084 9.01745 30.1042 9.0195 30.1233 9.02541C30.1424 9.03133 30.1602 9.04098 30.1756 9.05382C30.191 9.06666 30.2037 9.08242 30.2129 9.1002L32.2859 13.1039C32.3042 13.1397 32.3078 13.1813 32.2959 13.2197C32.2841 13.2582 32.2577 13.2905 32.2223 13.3097C32.2002 13.3188 32.1766 13.3239 32.1527 13.3248Z" fill="white"/>
<path d="M42.1459 36.9439C42.1179 36.9439 42.0905 36.9363 42.0665 36.9219C42.0425 36.9075 42.0229 36.8868 42.0097 36.8622L39.9367 32.8584C39.9273 32.841 39.9215 32.8219 39.9196 32.8021C39.9177 32.7824 39.9198 32.7625 39.9257 32.7436C39.9317 32.7247 39.9413 32.7072 39.9541 32.6921C39.9669 32.677 39.9826 32.6646 40.0003 32.6557C40.018 32.6462 40.0373 32.6403 40.0573 32.6384C40.0772 32.6365 40.0973 32.6385 40.1165 32.6444C40.1356 32.6503 40.1534 32.66 40.1688 32.6728C40.1842 32.6857 40.1968 32.7014 40.2061 32.7192L42.2791 36.7229C42.2974 36.7588 42.301 36.8003 42.2891 36.8388C42.2772 36.8772 42.2508 36.9095 42.2155 36.9287C42.1934 36.9378 42.1698 36.9429 42.1459 36.9439Z" fill="white"/>
<path fill-rule="evenodd" clip-rule="evenodd" d="M41.8907 10.3958C41.9468 10.3678 42.015 10.3905 42.043 10.4466L50.5714 27.5033C50.5994 27.5594 50.5767 27.6276 50.5206 27.6556C50.4645 27.6837 50.3963 27.6609 50.3682 27.6049L41.8399 10.5481C41.8118 10.4921 41.8346 10.4238 41.8907 10.3958ZM25.9935 31.2893C26.0496 31.2612 26.1178 31.284 26.1458 31.3401L34.6742 48.3968C34.7022 48.4529 34.6795 48.5211 34.6234 48.5491C34.5673 48.5772 34.4991 48.5544 34.471 48.4983L25.9427 31.4416C25.9146 31.3855 25.9374 31.3173 25.9935 31.2893Z" fill="white"/>
<path d="M7.9716 23.307L12.8301 39.0429C13.2324 40.346 14.615 41.0762 15.9181 40.6739L40.0655 33.2183C41.3686 32.816 42.0989 31.4334 41.6965 30.1303L36.838 14.3944C36.4357 13.0913 35.0531 12.3611 33.75 12.7634L9.60261 20.219C8.29948 20.6214 7.56926 22.0039 7.9716 23.307Z" fill="white"/>
<path d="M14.8381 40.9278C14.3432 40.8607 13.8778 40.6536 13.4966 40.3309C13.1154 40.0082 12.8344 39.5832 12.6866 39.1061L7.81483 23.3689C7.61025 22.7049 7.67767 21.9869 8.00228 21.3726C8.32689 20.7584 8.88213 20.2982 9.54594 20.0931L33.6945 12.6367C34.3585 12.4321 35.0765 12.4996 35.6907 12.8242C36.305 13.1488 36.7652 13.704 36.9703 14.3678L41.8271 30.1031C41.9289 30.4316 41.965 30.7771 41.9332 31.1196C41.9015 31.4621 41.8025 31.7951 41.642 32.0993C41.4815 32.4036 41.2626 32.6732 40.9979 32.8928C40.7331 33.1125 40.4276 33.2777 40.0989 33.3792L15.9504 40.8356C15.5906 40.9464 15.2112 40.9778 14.8381 40.9278V40.9278ZM34.7926 12.8267C34.4591 12.7813 34.1198 12.8088 33.798 12.9075L9.6494 20.3639C9.06263 20.5456 8.57196 20.9527 8.28516 21.4959C7.99835 22.0391 7.93887 22.6739 8.11977 23.2609V23.2609L12.9911 39.0012C13.1734 39.5883 13.5811 40.0791 14.1248 40.3659C14.6685 40.6527 15.3037 40.7122 15.8912 40.5312L40.0278 33.0732C40.6146 32.8915 41.1052 32.4844 41.392 31.9412C41.6788 31.398 41.7383 30.7632 41.5574 30.1761L36.6861 14.4359C36.5554 14.0158 36.308 13.6415 35.9728 13.3566C35.6375 13.0717 35.2282 12.8879 34.7926 12.8267V12.8267Z" fill="#231F20"/>
<path d="M28.7494 19.2926L29.9752 23.2627C30.2661 24.2049 31.2658 24.7329 32.208 24.442L35.0186 23.5742C35.9608 23.2833 36.4888 22.2836 36.1978 21.3414L34.9721 17.3713C34.6812 16.4291 33.6815 15.9011 32.7393 16.192L29.9287 17.0598C28.9865 17.3507 28.4585 18.3503 28.7494 19.2926Z" fill="#C12B33"/>
<path d="M11.7169 22.6822C11.1372 22.8611 10.8124 23.4762 10.9914 24.0559C11.1703 24.6356 11.7854 24.9604 12.3651 24.7814L17.7752 23.111C18.3549 22.9321 18.6797 22.317 18.5007 21.7373C18.3217 21.1576 17.7067 20.8328 17.127 21.0118L11.7169 22.6822Z" fill="#D1D3D4"/>
<path d="M33.1394 29.6457L33.4831 30.7589C33.5733 31.0512 33.8834 31.2149 34.1756 31.1247L38.247 29.8677C38.5392 29.7774 38.703 29.4674 38.6127 29.1751L38.269 28.0619C38.1788 27.7697 37.8687 27.6059 37.5765 27.6961L33.5052 28.9531C33.2129 29.0434 33.0492 29.3534 33.1394 29.6457Z" fill="#D1D3D4"/>
<path d="M26.9245 31.5685L27.2683 32.6818C27.3585 32.974 27.6686 33.1378 27.9608 33.0475L32.0321 31.7905C32.3244 31.7003 32.4881 31.3902 32.3979 31.098L32.0542 29.9847C31.9639 29.6925 31.6539 29.5287 31.3616 29.6189L27.2903 30.876C26.9981 30.9662 26.8343 31.2763 26.9245 31.5685Z" fill="#D1D3D4"/>
<path d="M20.7068 33.4844L21.0505 34.5977C21.1407 34.8899 21.4508 35.0537 21.743 34.9634L25.8143 33.7064C26.1066 33.6162 26.2703 33.3061 26.1801 33.0139L25.8364 31.9006C25.7462 31.6084 25.4361 31.4446 25.1439 31.5348L21.0725 32.7919C20.7803 32.8821 20.6165 33.1922 20.7068 33.4844Z" fill="#D1D3D4"/>
<path d="M14.4929 35.4027L14.8366 36.516C14.9269 36.8082 15.2369 36.972 15.5292 36.8818L19.6005 35.6247C19.8927 35.5345 20.0565 35.2244 19.9662 34.9322L19.6225 33.8189C19.5323 33.5267 19.2222 33.3629 18.93 33.4532L14.8587 34.7102C14.5664 34.8004 14.4027 35.1105 14.4929 35.4027Z" fill="#D1D3D4"/>
<path d="M10.3899 42.8938L8.93626 44.1641C7.99868 45.056 5.54912 44.0061 3.47287 41.8129C1.39661 39.6198 0.46687 37.1284 1.41386 36.2348L2.87049 34.9649L10.3899 42.8938Z" fill="white"/>
<path d="M7.66583 44.6116C6.46651 44.4475 4.83782 43.4702 3.3611 41.9181C2.41986 40.9622 1.67397 39.8319 1.16516 38.5906C0.752841 37.4743 0.802042 36.6014 1.30083 36.1259L2.76128 34.8505C2.79076 34.8248 2.82901 34.8116 2.86803 34.8135C2.90705 34.8154 2.94381 34.8324 2.97063 34.8608L10.5007 42.779C10.5153 42.7931 10.5267 42.8102 10.5341 42.8292C10.5415 42.8481 10.5448 42.8684 10.5437 42.8887C10.5413 42.9304 10.5228 42.9695 10.4921 42.9977L9.03549 44.2676C8.84869 44.4258 8.62809 44.5392 8.39065 44.5988C8.1532 44.6584 7.90524 44.6628 7.66583 44.6116ZM2.84836 35.1739L1.50462 36.3554C1.10796 36.7318 1.08565 37.5199 1.4483 38.4858C1.94224 39.6903 2.66694 40.7866 3.58159 41.7131C5.56316 43.8169 7.96869 44.8761 8.83182 44.0595L10.1713 42.8866L2.84836 35.1739Z" fill="#231F20"/>
<path d="M10.3897 42.8913C11.3277 42.0005 10.4023 39.503 8.32272 37.3129C6.2431 35.1229 3.79678 34.0696 2.8587 34.9604C1.92062 35.8511 2.84602 38.3486 4.92563 40.5387C7.00525 42.7288 9.45157 43.782 10.3897 42.8913Z" fill="white"/>
<path d="M9.12001 43.3379C7.92069 43.1738 6.28901 42.1961 4.81788 40.6478C3.87484 39.6925 3.12783 38.562 2.61893 37.3199C2.20661 36.2036 2.25581 35.3306 2.7576 34.8556C3.25639 34.3802 4.13373 34.375 5.22401 34.8449C6.43817 35.4169 7.5287 36.2208 8.43416 37.2115C10.6047 39.497 11.5091 42.0399 10.4961 42.9917C10.3084 43.1507 10.0868 43.2646 9.84825 43.3246C9.60971 43.3846 9.36059 43.3892 9.12001 43.3379ZM4.08759 34.8238C3.8939 34.7784 3.69246 34.7772 3.49827 34.8205C3.30409 34.8637 3.12215 34.9502 2.96603 35.0735V35.0735C2.56256 35.4551 2.54107 36.2371 2.90671 37.2035C3.39981 38.4076 4.12347 39.5038 5.037 40.4303C7.01858 42.5342 9.42711 43.5937 10.2872 42.7768C11.1474 41.9598 10.2011 39.4998 8.2145 37.4106C7.338 36.4494 6.28135 35.6697 5.10449 35.1157C4.7804 34.9725 4.43827 34.8743 4.08759 34.8238Z" fill="#231F20"/>
<path d="M5.01039 36.0944L5.48769 36.6912L5.55065 36.6998C5.72304 36.757 5.88766 36.8039 6.06141 36.8735C6.51683 37.0647 6.93485 37.3349 7.29614 37.6717C7.52296 37.8756 7.72216 38.1082 7.88871 38.3637C7.99609 38.5044 8.05707 38.675 8.06321 38.8518C8.06096 38.9138 8.03971 38.9736 8.00234 39.0232C7.96497 39.0727 7.91328 39.1095 7.85428 39.1287C7.75912 39.1768 7.65579 39.2176 7.55164 39.2644L8.44889 40.386C8.64303 40.2843 8.5942 40.0608 8.38703 39.7667L9.03444 39.7453C9.20402 39.9387 9.33312 40.164 9.41413 40.4081C9.45004 40.5006 9.45722 40.6018 9.43473 40.6985C9.41224 40.7951 9.36113 40.8827 9.28807 40.9499C9.21567 41.0102 9.12052 41.0583 9.03312 41.1166L9.35909 41.5246L8.73358 41.6315L8.39944 41.2162C8.21355 41.1907 8.03965 41.1669 7.84775 41.1407C7.48269 41.0547 7.13605 40.9038 6.82438 40.6952C6.39871 40.4331 6.0304 40.0876 5.74158 39.6796C5.44847 39.2546 5.41413 38.9475 5.6545 38.7758C5.81342 38.6729 5.99123 38.6028 6.17756 38.5694L6.25321 38.5522L5.34219 37.4196L5.31221 37.4155C5.27976 37.4761 5.25457 37.5403 5.23716 37.6068C5.25269 37.7469 5.31288 37.8783 5.40885 37.9816L4.4202 37.9074C4.35373 37.8128 4.28686 37.7212 4.22897 37.6308C4.01814 37.2965 3.95625 37.0345 4.06088 36.8503C4.12507 36.7631 4.21007 36.6935 4.30811 36.6477C4.40615 36.6019 4.51411 36.5813 4.62213 36.588C4.65511 36.5925 4.65757 36.5745 4.6291 36.537C4.464 36.3373 4.30231 36.135 4.14062 35.9326L5.01039 36.0944ZM6.96467 39.4468C6.86146 39.509 6.73374 39.5496 6.73844 39.6938C6.74314 39.838 7.02975 40.1766 7.31863 40.3199C7.46029 40.3936 7.61466 40.4396 7.77352 40.4555L6.96467 39.4468ZM6.86224 38.4095C6.94935 38.3757 7.03523 38.3507 7.0583 38.2714C7.0998 38.1244 6.81796 37.7957 6.50456 37.6306C6.37102 37.5573 6.2402 37.5089 6.09044 37.4426L6.86224 38.4095Z" fill="#D1D3D4"/>
<path d="M18.0558 59.4417L18.5488 61.3082C18.9293 62.5454 16.9005 64.2684 14.0169 65.1628C11.1333 66.0572 8.48416 65.7741 8.10024 64.5395L7.60772 62.67L18.0558 59.4417Z" fill="white"/>
<path d="M9.93342 65.7832C8.88701 65.64 8.15448 65.2343 7.95769 64.5965L7.46258 62.7236C7.45297 62.6856 7.45811 62.6455 7.47698 62.6112C7.49584 62.5769 7.52702 62.5511 7.56421 62.5389L18.0123 59.3106C18.0319 59.3049 18.0524 59.3034 18.0725 59.3062C18.0926 59.3089 18.112 59.3159 18.1293 59.3266C18.1471 59.3369 18.1627 59.3506 18.1751 59.367C18.1876 59.3834 18.1966 59.4021 18.2017 59.422L18.6947 61.2885C19.1053 62.6184 17.0725 64.3929 14.0616 65.3248C12.7326 65.764 11.3264 65.9201 9.93342 65.7832V65.7832ZM7.79199 62.7717L8.246 64.4985C8.59548 65.6276 11.217 65.8672 13.9785 65.0172C16.7399 64.1672 18.7595 62.4887 18.4087 61.3472L17.9569 59.6268L7.79199 62.7717Z" fill="#231F20"/>
<path d="M13.5221 63.2961C16.4075 62.4041 18.4369 60.6791 18.0548 59.4432C17.6728 58.2073 15.0239 57.9285 12.1385 58.8205C9.25314 59.7125 7.22379 61.4375 7.60585 62.6734C7.98792 63.9093 10.6367 64.1881 13.5221 63.2961Z" fill="white"/>
<path d="M9.43222 63.9098C8.35283 63.7621 7.65573 63.3429 7.45649 62.7231C7.02832 61.3878 9.07644 59.6124 12.087 58.6834C15.0975 57.7545 17.7789 58.0695 18.1917 59.4058C18.6045 60.7421 16.5717 62.5165 13.5608 63.4485C12.2857 63.8677 10.9412 64.0344 9.6023 63.9392L9.43222 63.9098ZM16.1955 58.5248C14.8405 58.3958 13.4734 58.5499 12.1811 58.9773C9.42948 59.8226 7.40008 61.5058 7.74792 62.6469C7.91368 63.1766 8.60916 63.5406 9.63869 63.6509C10.937 63.7434 12.2409 63.5804 13.4766 63.1712C16.2282 62.3259 18.2576 60.6427 17.9068 59.5012C17.7478 58.9663 17.107 58.6495 16.1955 58.5248Z" fill="#231F20"/>
<path d="M9.57413 61.2465L10.3204 61.0829L10.3664 61.0373C10.494 60.9081 10.6083 60.7649 10.7485 60.6558C11.1225 60.3359 11.5498 60.0842 12.0109 59.9122C12.2952 59.8003 12.5928 59.7261 12.8964 59.6913C13.0704 59.66 13.2498 59.6846 13.4091 59.7615C13.4608 59.7914 13.5024 59.8361 13.5288 59.8897C13.5551 59.9433 13.565 60.0035 13.5572 60.0627C13.5429 60.1677 13.5487 60.2815 13.5425 60.3937L14.9466 60.0879C14.9402 59.8671 14.7216 59.8128 14.3658 59.8679L14.6308 59.2933C14.8829 59.2283 15.1455 59.2144 15.403 59.2524C15.5031 59.2612 15.598 59.301 15.6744 59.3662C15.7509 59.4314 15.8052 59.5188 15.8297 59.6162C15.8487 59.7188 15.8611 59.8225 15.8667 59.9267L16.3766 59.8163L16.1957 60.4238L15.6756 60.542C15.5691 60.6954 15.4754 60.8445 15.3564 60.9992C15.1206 61.2893 14.8346 61.5347 14.512 61.7237C14.0904 61.9898 13.6181 62.1655 13.125 62.2394C12.6136 62.3161 12.3258 62.2095 12.277 61.9188C12.255 61.7313 12.2706 61.5413 12.3229 61.36C12.3266 61.333 12.3303 61.306 12.3335 61.282L10.9158 61.5981L10.8889 61.6158C10.9278 61.6721 10.9744 61.7227 11.0272 61.7661C11.1588 61.8156 11.3031 61.8203 11.4377 61.7795L10.9338 62.6269C10.8184 62.6447 10.7089 62.6633 10.6037 62.6733C10.2098 62.7172 9.94624 62.6567 9.82707 62.4785C9.77886 62.3837 9.75482 62.2785 9.75711 62.1723C9.75939 62.066 9.78792 61.962 9.84016 61.8694C9.84426 61.8394 9.84508 61.8334 9.79465 61.8448L9.03554 62.0128L9.57413 61.2465ZM13.4467 60.9823C13.4577 61.1029 13.4366 61.2344 13.5646 61.3038C13.7107 61.3221 13.8591 61.3101 14.0003 61.2685C14.1416 61.2268 14.2728 61.1565 14.3857 61.0619C14.5146 60.9669 14.6241 60.8481 14.7085 60.712L13.4467 60.9823ZM12.4708 60.6135C12.4831 60.5236 12.4959 60.4306 12.4331 60.3762C12.3216 60.2755 11.9041 60.3802 11.613 60.5878C11.4911 60.675 11.3894 60.771 11.268 60.8766L12.4708 60.6135Z" fill="#D1D3D4"/>
<path d="M12.3845 47.425C11.0738 49.057 11.731 53.1605 11.731 53.1605L13.1536 54.528C13.6705 54.9439 14.2642 55.2539 14.9009 55.4403C15.5376 55.6268 16.2048 55.686 16.8643 55.6146C17.5239 55.5431 18.163 55.3425 18.745 55.0241C19.327 54.7057 19.8407 54.2758 20.2566 53.7589C20.6724 53.2421 20.9825 52.6483 21.1689 52.0116C21.3553 51.3749 21.4145 50.7077 21.3431 50.0482C21.2717 49.3886 21.071 48.7495 20.7527 48.1675C20.4343 47.5855 20.0044 47.0718 19.4875 46.656L17.8542 45.5558C17.8542 45.5558 13.6948 45.7961 12.3845 47.425Z" fill="white"/>
<path d="M15.6054 55.7456C14.6735 55.6164 13.7943 55.2364 13.0618 54.6462L11.6251 53.2706C11.6019 53.2474 11.5868 53.2175 11.5818 53.1852C11.5534 53.0133 10.9334 48.9944 12.267 47.3289C13.6046 45.6793 17.6667 45.4135 17.8391 45.4035C17.8707 45.3989 17.9029 45.4033 17.9321 45.4162L19.5714 46.5171C20.4592 47.2297 21.089 48.2137 21.3642 49.3184C21.6394 50.4231 21.5449 51.5876 21.095 52.6334C20.6452 53.6792 19.8649 54.5487 18.8736 55.1086C17.8824 55.6686 16.7349 55.8881 15.607 55.7336L15.6054 55.7456ZM11.8718 53.0966L13.2599 54.4259C14.2731 55.236 15.5662 55.6112 16.8556 55.4693C18.145 55.3274 19.3256 54.6799 20.1383 53.6688C20.9512 52.6561 21.3291 51.3623 21.1891 50.0713C21.0491 48.7803 20.4026 47.5976 19.3915 46.7827L17.8051 45.7195C17.3332 45.7527 13.6792 46.0713 12.5023 47.5291C11.3238 48.9989 11.8057 52.6202 11.8731 53.0876L11.8718 53.0966Z" fill="#231F20"/>
<path d="M14.6356 54.7919C17.3994 55.1701 19.9464 53.2362 20.3246 50.4725C20.7027 47.7088 18.7689 45.1618 16.0051 44.7836C13.2414 44.4054 10.6944 46.3393 10.3162 49.103C9.93804 51.8667 11.8719 54.4137 14.6356 54.7919Z" fill="white"/>
<path d="M14.6049 54.9463C13.8116 54.8356 13.0545 54.5431 12.3927 54.0918C11.7309 53.6404 11.1823 53.0423 10.7896 52.3441C10.3969 51.6459 10.1708 50.8664 10.1288 50.0665C10.0869 49.2665 10.2303 48.4676 10.5478 47.7322C10.8653 46.9967 11.3483 46.3445 11.9593 45.8264C12.5702 45.3083 13.2926 44.9383 14.07 44.7453C14.8475 44.5522 15.659 44.5413 16.4414 44.7134C17.2237 44.8855 17.9558 45.2359 18.5805 45.7374V45.7374C19.4685 46.4503 20.0981 47.435 20.3726 48.5403C20.6471 49.6455 20.5513 50.8103 20.0999 51.8559C19.6485 52.9015 18.8665 53.77 17.8739 54.3283C16.8812 54.8865 15.7328 55.1036 14.6049 54.9463V54.9463ZM15.9924 44.9404C14.8183 44.7779 13.625 45.0466 12.6338 45.6967C11.6426 46.3468 10.9207 47.3342 10.6019 48.4759C10.2831 49.6175 10.389 50.8361 10.9 51.9056C11.411 52.9752 12.2924 53.8233 13.3808 54.2926C14.4693 54.762 15.691 54.8209 16.8196 54.4583C17.9481 54.0957 18.9069 53.3363 19.5183 52.3208C20.1297 51.3053 20.3523 50.1025 20.1446 48.9355C19.937 47.7685 19.3134 46.7163 18.3893 45.9739C17.6994 45.417 16.8713 45.0577 15.9933 44.9344L15.9924 44.9404Z" fill="#231F20"/>
<path d="M12.8276 47.1103L13.3995 47.5734C13.4382 47.6032 13.4596 47.603 13.4945 47.5712C13.7765 47.3325 14.1141 47.1686 14.4761 47.0946C14.8539 47.0167 15.2471 47.0792 15.5821 47.2704C15.6728 47.3225 15.7595 47.3802 15.8643 47.4403L15.1505 48.3262C15.016 48.2201 14.8493 48.1628 14.678 48.1638C14.5442 48.1798 14.4114 48.2035 14.2803 48.2346L14.2771 48.2586L15.3771 49.1483L15.4764 49.0702C15.7163 48.8727 15.9782 48.7035 16.257 48.5662C16.4635 48.4565 16.696 48.4052 16.9294 48.4178C17.1629 48.4303 17.3885 48.5063 17.5821 48.6375C17.9633 48.8574 18.2429 49.2181 18.3609 49.6421C18.4587 49.987 18.4449 50.354 18.3213 50.6905C18.2468 50.9002 18.1457 51.1032 18.0524 51.3165L18.4816 51.6623L17.8248 52.4888L17.3861 52.1233C17.2066 52.2515 17.0452 52.3821 16.8742 52.4931C16.5407 52.7134 16.1427 52.8149 15.7444 52.7814C15.4031 52.7432 15.0808 52.6045 14.8184 52.3829L15.5182 51.5104C15.6744 51.6265 15.8645 51.6881 16.0592 51.6854C16.2539 51.6828 16.4423 51.6162 16.5953 51.4959L15.4089 50.5455C15.2299 50.6706 15.05 50.8018 14.8684 50.9236C14.6537 51.0799 14.4039 51.181 14.1409 51.218C13.872 51.2474 13.6007 51.191 13.3657 51.057C13.0704 50.9064 12.8227 50.6769 12.6501 50.394C12.5266 50.1893 12.4496 49.9599 12.4246 49.7221C12.3996 49.4843 12.4272 49.244 12.5054 49.018C12.5672 48.8341 12.6672 48.6614 12.7462 48.4859C12.7491 48.4649 12.752 48.4439 12.7792 48.4232L12.1849 47.9448L12.8276 47.1103ZM17.2525 50.6664C17.3434 50.5187 17.39 50.3481 17.387 50.1747C17.3799 50.0266 17.3187 49.8862 17.2149 49.7802C17.1112 49.6743 16.9722 49.6101 16.8242 49.5998C16.6089 49.6285 16.4057 49.7159 16.2368 49.8524L17.2525 50.6664ZM13.5227 49.0167C13.4813 49.1607 13.451 49.3077 13.432 49.4564C13.4277 49.5376 13.4411 49.6189 13.4714 49.6944C13.5016 49.7699 13.548 49.838 13.6073 49.8938C13.6665 49.9495 13.7372 49.9917 13.8144 50.0174C13.8916 50.0431 13.9735 50.0517 14.0543 50.0425C14.2217 49.995 14.3768 49.912 14.5091 49.7992L13.5227 49.0167Z" fill="#D1D3D4"/>
</svg>
