<svg width="74" height="79" viewBox="0 0 74 79" fill="none" xmlns="http://www.w3.org/2000/svg">
<path d="M58.7125 22.4547L66.0756 24.2465C66.2431 24.2873 66.401 24.3606 66.5402 24.4624C66.6794 24.5641 66.7971 24.6922 66.8868 24.8394C66.9765 24.9866 67.0362 25.15 67.0627 25.3203C67.0892 25.4906 67.0818 25.6644 67.0411 25.8318L55.9811 71.2793C55.8988 71.6174 55.6855 71.9089 55.388 72.0898C55.0906 72.2706 54.7334 72.326 54.3951 72.2436L47.0321 70.4518L58.7125 22.4547Z" fill="#231F20"/>
<path d="M54.3569 72.4006L46.9939 70.6087C46.9528 70.5979 46.9175 70.5715 46.8954 70.5352C46.8732 70.4989 46.8661 70.4555 46.8753 70.414L58.5558 22.4169C58.5666 22.3758 58.593 22.3405 58.6293 22.3184C58.6656 22.2963 58.7091 22.2891 58.7506 22.2984L66.1137 24.0902C66.4931 24.1835 66.8202 24.4231 67.0234 24.7567C67.2266 25.0903 67.2893 25.4907 67.1978 25.8702L56.1378 71.3178C56.0446 71.697 55.8049 72.0238 55.4712 72.2267C55.1374 72.4296 54.7368 72.4921 54.3569 72.4006ZM47.2237 70.3329L54.4332 72.0874C54.7299 72.1587 55.0428 72.1098 55.3034 71.9513C55.5641 71.7928 55.7514 71.5376 55.8243 71.2415L66.8843 25.794C66.9565 25.4974 66.9078 25.1843 66.749 24.9235C66.5902 24.6628 66.3342 24.4757 66.0374 24.4035L58.828 22.649L47.2237 70.3329Z" fill="#231F20"/>
<path d="M31.7933 14.7156L28.2817 15.4203L18.7895 62.5566L22.1842 63.3827L31.7933 14.7156Z" fill="#231F20"/>
<path d="M22.1463 63.5395L18.7516 62.7134C18.7111 62.7035 18.6759 62.6784 18.6535 62.6433C18.6311 62.6081 18.6232 62.5657 18.6314 62.5249L28.108 15.3981C28.1138 15.3672 28.1286 15.3387 28.1506 15.3163C28.1726 15.2939 28.2008 15.2786 28.2316 15.2723L31.7463 14.5683C31.772 14.5623 31.7987 14.5624 31.8243 14.5686C31.8499 14.5749 31.8736 14.587 31.8937 14.6041C31.9134 14.6225 31.9278 14.6458 31.9356 14.6716C31.9433 14.6973 31.944 14.7247 31.9376 14.7509L22.3286 63.418C22.3249 63.4397 22.3166 63.4604 22.3042 63.4785C22.2917 63.4967 22.2754 63.5119 22.2565 63.5232C22.2231 63.5421 22.1838 63.5479 22.1463 63.5395ZM18.9783 62.4368L22.0595 63.1866L31.5868 14.9375L28.4143 15.5722L18.9783 62.4368Z" fill="#231F20"/>
<path d="M49.5177 69.8155C49.3368 70.4683 48.9534 71.0468 48.4226 71.4679C47.8917 71.889 47.2408 72.1309 46.5636 72.1588C37.6712 72.4454 28.8681 70.3031 21.1018 65.9624C20.513 65.6265 20.0461 65.1125 19.7681 64.4946C19.4901 63.8767 19.4154 63.1867 19.5547 62.5238L29.502 15.3456C29.6497 14.6328 30.0374 13.9921 30.6004 13.5303C31.1635 13.0684 31.8679 12.8134 32.5965 12.8076C37.4737 12.8497 42.3286 13.4743 47.0579 14.6681C51.8079 15.7812 56.408 17.4575 60.7602 19.6615C61.406 20.0009 61.9161 20.551 62.2056 21.2202C62.4952 21.8894 62.5468 22.6375 62.3519 23.3399L49.5177 69.8155Z" fill="white"/>
<path d="M33.3863 70.9561C29.0573 69.9281 24.8941 68.2974 21.0189 66.1117C20.4005 65.7592 19.91 65.2198 19.618 64.5709C19.3259 63.9221 19.2476 63.1975 19.394 62.5015L29.331 15.3109C29.49 14.5623 29.8998 13.8902 30.4927 13.406C31.0857 12.9217 31.8263 12.6542 32.5922 12.6476C35.6623 12.6383 40.6686 12.9542 47.0787 14.5141C53.4888 16.0741 58.0961 18.0977 60.8186 19.5167C61.4958 19.8745 62.0307 20.4524 62.3348 21.155C62.6389 21.8576 62.6941 22.6427 62.4913 23.3807L49.6477 69.854C49.458 70.5395 49.0554 71.1471 48.4979 71.5892C47.9404 72.0312 47.2569 72.285 46.5457 72.3139C42.1175 72.4767 37.6881 72.0197 33.3863 70.9561ZM47.0432 14.8373C40.6519 13.2819 35.6722 12.9658 32.6194 12.986C31.9249 12.985 31.2511 13.2219 30.7102 13.6571C30.1693 14.0923 29.794 14.6996 29.6468 15.3778L19.6995 62.5559C19.5666 63.1853 19.6374 63.8408 19.9017 64.4275C20.1659 65.0142 20.6099 65.5018 21.1696 65.8199C28.9135 70.1493 37.6919 72.2857 46.5593 71.9987C47.2022 71.9724 47.8202 71.7429 48.3243 71.3434C48.8284 70.9438 49.1927 70.3948 49.3647 69.7752L62.2083 23.3019C62.3923 22.635 62.3428 21.9252 62.0681 21.29C61.7934 20.6548 61.3099 20.1324 60.6977 19.8091C57.9901 18.3971 53.422 16.3896 47.0432 14.8373Z" fill="#231F20"/>
<path d="M39.5952 43.7369C34.4666 42.4678 29.4148 40.9061 24.4647 39.0595C24.4244 39.0439 24.392 39.0131 24.3745 38.9737C24.357 38.9343 24.3559 38.8895 24.3714 38.8493C24.3869 38.8091 24.4178 38.7767 24.4572 38.7592C24.4966 38.7418 24.5414 38.7407 24.5817 38.7562C24.7785 38.8339 44.5691 46.4237 56.2006 45.3826C56.2401 45.3838 56.2778 45.3994 56.3065 45.4264C56.3353 45.4534 56.3531 45.4901 56.3566 45.5294C56.3601 45.5687 56.3491 45.6079 56.3257 45.6396C56.3022 45.6713 56.2679 45.6933 56.2293 45.7015C51.4117 46.1381 45.2249 45.1069 39.5952 43.7369Z" fill="#231F20"/>
<path d="M29.3952 60.8878L24.4019 59.6726C24.0747 59.593 23.745 59.7935 23.6654 60.1204L23.2035 62.0185C23.124 62.3454 23.3247 62.675 23.6519 62.7546L28.6452 63.9698C28.9724 64.0494 29.3021 63.8489 29.3817 63.522L29.8436 61.6239C29.9232 61.297 29.7224 60.9674 29.3952 60.8878Z" fill="#C12B33"/>
<path d="M28.604 64.126L23.6138 62.9116C23.4151 62.8632 23.2437 62.738 23.1374 62.5634C23.0311 62.3888 22.9985 62.1792 23.0468 61.9807L23.5087 60.0826C23.557 59.884 23.6823 59.7128 23.857 59.6067C24.0316 59.5005 24.2414 59.468 24.44 59.5163L29.4302 60.7307C29.5293 60.754 29.6229 60.7966 29.7054 60.8561C29.788 60.9157 29.8579 60.991 29.9112 61.0776C29.9645 61.1643 30.0001 61.2607 30.0159 61.3612C30.0318 61.4617 30.0275 61.5643 30.0035 61.6631L29.5416 63.5612C29.5175 63.6601 29.4741 63.7532 29.4139 63.8351C29.3536 63.9171 29.2777 63.9863 29.1906 64.0388C29.1034 64.0913 29.0067 64.1261 28.906 64.141C28.8053 64.156 28.7027 64.1509 28.604 64.126ZM24.3638 59.8295C24.2483 59.8014 24.1263 59.8203 24.0247 59.8821C23.9231 59.9438 23.8503 60.0434 23.8222 60.1589L23.3603 62.0569C23.3322 62.1724 23.3511 62.2943 23.4129 62.3959C23.4748 62.4974 23.5744 62.5702 23.69 62.5984L28.6802 63.8127C28.7957 63.8409 28.9177 63.822 29.0193 63.7602C29.1209 63.6984 29.1937 63.5989 29.2218 63.4834L29.6837 61.5853C29.7118 61.4699 29.6929 61.3479 29.631 61.2464C29.5692 61.1449 29.4695 61.072 29.354 61.0439L24.3638 59.8295Z" fill="#231F20"/>
<path d="M37.959 62.9718L32.9657 61.7566C32.6385 61.677 32.3087 61.8775 32.2292 62.2045L31.7673 64.1025C31.6877 64.4295 31.8884 64.7591 32.2156 64.8387L37.2089 66.0539C37.5361 66.1335 37.8659 65.933 37.9454 65.606L38.4073 63.708C38.4869 63.381 38.2862 63.0514 37.959 62.9718Z" fill="#D1D3D4"/>
<path d="M37.1706 66.2107L32.1804 64.9963C31.9817 64.948 31.8104 64.8227 31.7041 64.6481C31.5977 64.4736 31.5651 64.2639 31.6135 64.0654L32.0754 62.1673C32.1237 61.9688 32.2489 61.7976 32.4236 61.6914C32.5983 61.5852 32.808 61.5527 33.0067 61.6011L38 62.8162C38.1987 62.8646 38.3701 62.9898 38.4764 63.1644C38.5827 63.339 38.6153 63.5486 38.567 63.7471L38.1051 65.6452C38.0811 65.7438 38.0379 65.8366 37.9779 65.9184C37.9179 66.0003 37.8423 66.0694 37.7555 66.122C37.6686 66.1745 37.5723 66.2094 37.4719 66.2246C37.3715 66.2399 37.2692 66.2351 37.1706 66.2107ZM32.9305 61.9143C32.8731 61.8999 32.8134 61.8969 32.7549 61.9057C32.6964 61.9144 32.6402 61.9347 32.5896 61.9652C32.539 61.9957 32.4949 62.036 32.4599 62.0836C32.4249 62.1313 32.3997 62.1854 32.3857 62.2428L31.9238 64.1409C31.8957 64.2564 31.9146 64.3783 31.9765 64.4798C32.0383 64.5814 32.138 64.6542 32.2535 64.6823L37.2468 65.8975C37.3624 65.9256 37.4844 65.9067 37.586 65.8449C37.6875 65.7832 37.7604 65.6836 37.7885 65.5681L38.2504 63.6701C38.2785 63.5546 38.2595 63.4327 38.1977 63.3312C38.1359 63.2296 38.0362 63.1568 37.9207 63.1287L32.9305 61.9143Z" fill="#231F20"/>
<path d="M46.5224 65.0558L41.5291 63.8406C41.2019 63.761 40.8722 63.9615 40.7926 64.2884L40.3307 66.1865C40.2512 66.5135 40.4519 66.8431 40.7791 66.9227L45.7724 68.1378C46.0996 68.2175 46.4293 68.017 46.5089 67.69L46.9708 65.7919C47.0504 65.465 46.8496 65.1354 46.5224 65.0558Z" fill="#C12B33"/>
<path d="M45.7342 68.2947L40.7409 67.0796C40.5422 67.0312 40.3708 66.906 40.2645 66.7314C40.1582 66.5568 40.1256 66.3472 40.1739 66.1487L40.6358 64.2506C40.6841 64.052 40.8094 63.8808 40.984 63.7746C41.1587 63.6684 41.3684 63.6359 41.5671 63.6843L46.5604 64.8995C46.7591 64.9478 46.9305 65.0731 47.0368 65.2476C47.1432 65.4222 47.1757 65.6318 47.1274 65.8304L46.6655 67.7284C46.6172 67.927 46.4919 68.0982 46.3173 68.2044C46.1426 68.3106 45.9329 68.3431 45.7342 68.2947ZM41.4909 63.9975C41.3754 63.9694 41.2534 63.9883 41.1518 64.0501C41.0502 64.1118 40.9774 64.2114 40.9493 64.3269L40.4873 66.2249C40.4592 66.3404 40.4782 66.4623 40.54 66.5638C40.6019 66.6654 40.7015 66.7382 40.8171 66.7663L45.8104 67.9815C45.926 68.0096 46.048 67.9907 46.1495 67.929C46.2511 67.8672 46.324 67.7676 46.3521 67.6522L46.814 65.7541C46.8421 65.6386 46.8231 65.5167 46.7613 65.4152C46.6994 65.3136 46.5998 65.2408 46.4842 65.2127L41.4909 63.9975Z" fill="#231F20"/>
<path d="M29.8045 59.1926L24.8144 57.9782C24.6157 57.9298 24.4443 57.8046 24.338 57.63C24.2316 57.4554 24.1991 57.2458 24.2474 57.0473L24.7093 55.1492C24.7576 54.9507 24.8829 54.7795 25.0575 54.6733C25.2322 54.5671 25.4419 54.5346 25.6406 54.5829L30.6308 55.7973C30.8295 55.8457 31.0008 55.9709 31.1072 56.1455C31.2135 56.3201 31.2461 56.5297 31.1978 56.7282L30.7359 58.6263C30.6875 58.8249 30.5623 58.9961 30.3876 59.1023C30.213 59.2084 30.0032 59.2409 29.8045 59.1926ZM25.5644 54.8962C25.4488 54.868 25.3269 54.8869 25.2253 54.9487C25.1237 55.0105 25.0508 55.11 25.0227 55.2255L24.5608 57.1236C24.5327 57.239 24.5517 57.361 24.6135 57.4625C24.6754 57.564 24.775 57.6369 24.8906 57.665L29.8808 58.8794C29.9963 58.9075 30.1183 58.8886 30.2199 58.8268C30.3215 58.7651 30.3943 58.6655 30.4224 58.55L30.8843 56.652C30.9124 56.5365 30.8935 56.4146 30.8316 56.313C30.7698 56.2115 30.6701 56.1387 30.5546 56.1106L25.5644 54.8962Z" fill="#231F20"/>
<path d="M38.3712 61.2774L33.381 60.063C33.1823 60.0146 33.011 59.8894 32.9046 59.7148C32.7983 59.5402 32.7657 59.3306 32.814 59.1321L33.2759 57.234C33.3243 57.0354 33.4495 56.8642 33.6242 56.758C33.7988 56.6518 34.0086 56.6193 34.2073 56.6677L39.2006 57.8829C39.3993 57.9312 39.5706 58.0565 39.677 58.231C39.7833 58.4056 39.8159 58.6152 39.7676 58.8138L39.3056 60.7118C39.2817 60.8104 39.2384 60.9033 39.1784 60.9851C39.1184 61.0669 39.0429 61.1361 38.956 61.1886C38.8692 61.2412 38.7728 61.2761 38.6725 61.2913C38.5721 61.3065 38.4697 61.3018 38.3712 61.2774ZM34.131 56.9809C34.0155 56.9528 33.8935 56.9717 33.7919 57.0335C33.6903 57.0952 33.6175 57.1948 33.5894 57.3103L33.1275 59.2083C33.0994 59.3238 33.1183 59.4457 33.1802 59.5472C33.242 59.6488 33.3417 59.7216 33.4572 59.7497L38.4505 60.9649C38.5661 60.993 38.6881 60.9741 38.7897 60.9124C38.8912 60.8506 38.9641 60.751 38.9922 60.6356L39.4541 58.7375C39.4822 58.622 39.4632 58.5001 39.4014 58.3986C39.3396 58.297 39.2399 58.2242 39.1244 58.1961L34.131 56.9809Z" fill="#231F20"/>
<path d="M46.9348 63.3614L41.9414 62.1462C41.7428 62.0979 41.5714 61.9726 41.4651 61.798C41.3587 61.6235 41.3261 61.4138 41.3745 61.2153L41.8364 59.3172C41.8847 59.1187 42.01 58.9475 42.1846 58.8413C42.3593 58.7351 42.569 58.7026 42.7677 58.751L47.761 59.9661C47.9597 60.0145 48.1311 60.1397 48.2374 60.3143C48.3437 60.4889 48.3763 60.6985 48.328 60.897L47.8661 62.7951C47.8178 62.9936 47.6925 63.1648 47.5178 63.271C47.3432 63.3772 47.1334 63.4097 46.9348 63.3614ZM42.6915 59.0642C42.5759 59.036 42.4539 59.0549 42.3524 59.1167C42.2508 59.1785 42.1779 59.278 42.1498 59.3935L41.6879 61.2916C41.6598 61.4071 41.6788 61.529 41.7406 61.6305C41.8025 61.732 41.9021 61.8049 42.0177 61.833L47.011 63.0482C47.1265 63.0763 47.2485 63.0574 47.3501 62.9956C47.4517 62.9339 47.5245 62.8343 47.5526 62.7188L48.0145 60.8207C48.0426 60.7053 48.0237 60.5834 47.9618 60.4818C47.9 60.3803 47.8004 60.3075 47.6848 60.2793L42.6915 59.0642Z" fill="#231F20"/>
<path d="M31.001 54.276L26.0109 53.0616C25.8122 53.0132 25.6408 52.888 25.5345 52.7134C25.4281 52.5388 25.3956 52.3292 25.4439 52.1307L25.9096 50.2169C25.9579 50.0184 26.0832 49.8472 26.2578 49.741C26.4325 49.6348 26.6422 49.6023 26.8409 49.6507L31.8311 50.8651C31.9302 50.8883 32.0237 50.9309 32.1063 50.9905C32.1888 51.05 32.2588 51.1253 32.3121 51.212C32.3654 51.2987 32.401 51.395 32.4168 51.4955C32.4326 51.596 32.4284 51.6986 32.4044 51.7975L31.9424 53.6956C31.9202 53.7962 31.8779 53.8914 31.8182 53.9754C31.7584 54.0594 31.6824 54.1306 31.5946 54.1847C31.5068 54.2389 31.4091 54.2748 31.3071 54.2905C31.2051 54.3062 31.1011 54.3012 31.001 54.276ZM26.7609 49.9795C26.6453 49.9514 26.5234 49.9703 26.4218 50.0321C26.3202 50.0938 26.2473 50.1934 26.2192 50.3089L25.7573 52.207C25.7292 52.3224 25.7482 52.4443 25.81 52.5459C25.8719 52.6474 25.9715 52.7202 26.0871 52.7484L31.0773 53.9628C31.1928 53.9909 31.3148 53.972 31.4164 53.9102C31.518 53.8485 31.5908 53.7489 31.6189 53.6334L32.0846 51.7197C32.1127 51.6042 32.0938 51.4823 32.0319 51.3808C31.9701 51.2792 31.8704 51.2064 31.7549 51.1783L26.7609 49.9795Z" fill="#231F20"/>
<path d="M39.5677 56.3607L34.5775 55.1463C34.3788 55.098 34.2075 54.9727 34.1011 54.7981C33.9948 54.6236 33.9622 54.4139 34.0105 54.2154L34.4763 52.3017C34.5246 52.1031 34.6498 51.9319 34.8245 51.8257C34.9992 51.7195 35.2089 51.687 35.4076 51.7354L40.4009 52.9506C40.5996 52.9989 40.7709 53.1241 40.8773 53.2987C40.9836 53.4733 41.0162 53.6829 40.9679 53.8815L40.506 55.7795C40.4837 55.8799 40.4417 55.9749 40.3821 56.0587C40.3226 56.1426 40.2469 56.2137 40.1595 56.2678C40.0721 56.322 39.9747 56.3581 39.873 56.3741C39.7714 56.39 39.6676 56.3855 39.5677 56.3607ZM35.3314 52.0486C35.2158 52.0205 35.0938 52.0394 34.9922 52.1012C34.8907 52.1629 34.8178 52.2625 34.7897 52.3779L34.3278 54.276C34.3115 54.334 34.307 54.3947 34.3146 54.4544C34.3223 54.5141 34.3419 54.5717 34.3723 54.6237C34.4028 54.6757 34.4434 54.7211 34.4917 54.757C34.5401 54.793 34.5952 54.8189 34.6537 54.8331L39.647 56.0483C39.7626 56.0764 39.8846 56.0575 39.9862 55.9957C40.0877 55.934 40.1606 55.8344 40.1887 55.7189L40.6544 53.8052C40.6825 53.6897 40.6636 53.5678 40.6017 53.4663C40.5399 53.3647 40.4402 53.2919 40.3247 53.2638L35.3314 52.0486Z" fill="#231F20"/>
<path d="M48.1313 58.4447L43.1379 57.2296C42.9393 57.1812 42.7679 57.056 42.6616 56.8814C42.5552 56.7068 42.5227 56.4972 42.571 56.2987L43.0367 54.3849C43.085 54.1864 43.2103 54.0152 43.3849 53.909C43.5596 53.8028 43.7693 53.7703 43.968 53.8186L48.9613 55.0338C49.16 55.0822 49.3314 55.2074 49.4377 55.382C49.544 55.5566 49.5766 55.7662 49.5283 55.9647L49.0664 57.8628C49.0442 57.9629 49.0023 58.0576 48.9431 58.1413C48.8838 58.225 48.8084 58.296 48.7213 58.3502C48.6342 58.4044 48.5372 58.4407 48.4358 58.4569C48.3345 58.4732 48.231 58.469 48.1313 58.4447ZM43.888 54.1475C43.7724 54.1194 43.6504 54.1383 43.5489 54.2001C43.4473 54.2618 43.3744 54.3614 43.3463 54.4769L42.8844 56.3749C42.8563 56.4904 42.8753 56.6123 42.9371 56.7139C42.999 56.8154 43.0986 56.8882 43.2142 56.9163L48.2075 58.1315C48.323 58.1596 48.445 58.1407 48.5466 58.079C48.6482 58.0172 48.721 57.9176 48.7491 57.8022L49.2149 55.8884C49.243 55.773 49.224 55.6511 49.1622 55.5495C49.1003 55.448 49.0007 55.3751 48.8851 55.347L43.888 54.1475Z" fill="#231F20"/>
<path d="M32.2147 49.2887L27.2245 48.0743C27.0263 48.0252 26.8555 47.8998 26.7493 47.7254C26.6431 47.5511 26.6101 47.3419 26.6576 47.1434L27.1202 45.2422C27.1686 45.0436 27.2938 44.8724 27.4685 44.7662C27.6431 44.66 27.8529 44.6275 28.0516 44.6759L33.0417 45.8903C33.2404 45.9387 33.4118 46.0639 33.5181 46.2385C33.6245 46.413 33.657 46.6227 33.6087 46.8212L33.1461 48.7224C33.097 48.9205 32.9716 49.0912 32.7971 49.1972C32.6227 49.3033 32.4134 49.3362 32.2147 49.2887ZM27.9753 44.9891C27.8598 44.961 27.7378 44.9799 27.6362 45.0417C27.5347 45.1034 27.4618 45.203 27.4337 45.3185L26.971 47.2197C26.9429 47.3351 26.9619 47.4571 27.0237 47.5586C27.0856 47.6601 27.1852 47.7329 27.3008 47.7611L32.2909 48.9755C32.4065 49.0036 32.5285 48.9847 32.6301 48.9229C32.7316 48.8612 32.8045 48.7616 32.8326 48.6461L33.2953 46.7449C33.3234 46.6294 33.3044 46.5075 33.2426 46.406C33.1807 46.3045 33.0811 46.2316 32.9655 46.2035L27.9753 44.9891Z" fill="#231F20"/>
<path d="M40.7814 51.3735L35.7912 50.159C35.593 50.1099 35.4222 49.9845 35.316 49.8102C35.2098 49.6358 35.1768 49.4266 35.2242 49.2282L35.6869 47.3269C35.7352 47.1284 35.8605 46.9572 36.0351 46.851C36.2098 46.7448 36.4195 46.7123 36.6182 46.7607L41.6115 47.9758C41.8102 48.0242 41.9816 48.1494 42.0879 48.324C42.1942 48.4986 42.2268 48.7082 42.1785 48.9067L41.7158 50.8079C41.6666 51.0066 41.5407 51.1776 41.3655 51.2836C41.1904 51.3896 40.9804 51.4219 40.7814 51.3735ZM36.542 47.0739C36.4264 47.0458 36.3045 47.0647 36.2029 47.1264C36.1013 47.1882 36.0285 47.2878 36.0003 47.4032L35.5377 49.3044C35.5096 49.4199 35.5285 49.5418 35.5904 49.6433C35.6522 49.7449 35.7519 49.8177 35.8674 49.8458L40.8607 51.061C40.9762 51.0882 41.0978 51.069 41.1992 51.0073C41.3005 50.9457 41.3735 50.8467 41.4024 50.7317L41.8651 48.8304C41.8923 48.715 41.8729 48.5935 41.8112 48.4922C41.7495 48.3909 41.6504 48.3179 41.5353 48.289L36.542 47.0739Z" fill="#231F20"/>
<path d="M49.345 53.4575L44.3516 52.2423C44.1534 52.1932 43.9826 52.0678 43.8764 51.8934C43.7702 51.7191 43.7372 51.5099 43.7847 51.3114L44.2473 49.4102C44.2957 49.2117 44.4209 49.0405 44.5956 48.9343C44.7702 48.8281 44.98 48.7956 45.1787 48.8439L50.172 50.0591C50.3707 50.1074 50.542 50.2327 50.6483 50.4072C50.7547 50.5818 50.7873 50.7914 50.739 50.99L50.2763 52.8912C50.2272 53.0893 50.1018 53.2599 49.9273 53.366C49.7529 53.4721 49.5436 53.5049 49.345 53.4575ZM45.1024 49.1571C44.9869 49.1299 44.8654 49.1492 44.764 49.2108C44.6626 49.2724 44.5896 49.3715 44.5608 49.4865L44.0981 51.3877C44.0709 51.5031 44.0902 51.6246 44.1519 51.7259C44.2136 51.8272 44.3128 51.9002 44.4279 51.9291L49.4212 53.1442C49.5367 53.1724 49.6587 53.1535 49.7603 53.0917C49.8619 53.0299 49.9347 52.9304 49.9628 52.8149L50.4255 50.9137C50.4536 50.7982 50.4346 50.6763 50.3728 50.5748C50.311 50.4733 50.2113 50.4004 50.0958 50.3723L45.1024 49.1571Z" fill="#231F20"/>
<path d="M34.3248 14.9006C34.6596 14.8892 58.2789 20.73 58.2789 20.73L34.3248 14.9006Z" fill="white"/>
<path d="M65.1175 23.9542L63.6819 23.6048L51.9884 71.6552L53.424 72.0045L65.1175 23.9542Z" fill="#D1D3D4"/>
<path d="M53.3852 72.1636L51.9496 71.8142C51.908 71.8041 51.8722 71.7779 51.8499 71.7414C51.8277 71.7048 51.8209 71.661 51.831 71.6195L63.5252 23.566C63.5353 23.5244 63.5615 23.4886 63.598 23.4664C63.6346 23.4442 63.6784 23.4374 63.72 23.4475L65.1556 23.7969C65.1967 23.8077 65.2321 23.8341 65.2542 23.8704C65.2763 23.9067 65.2835 23.9501 65.2742 23.9916L53.58 72.0451C53.5692 72.0862 53.5428 72.1215 53.5065 72.1436C53.4702 72.1657 53.4267 72.1728 53.3852 72.1636ZM52.1825 71.5391L53.3047 71.8122L64.9227 24.0719L63.788 23.7958L52.1825 71.5391Z" fill="#231F20"/>
<path d="M52.211 30.5761C52.211 30.5761 59.9402 17.312 56.9745 13.2629L39.2539 6.62498C39.2539 6.62498 35.3315 9.12119 34.2704 11.5137C33.2092 13.9061 27.3855 21.4467 28.0244 24.9707L52.211 30.5761Z" fill="#231F20"/>
<path d="M52.1033 30.5889L52.0856 30.5846L28.701 22.0068C28.6716 21.9958 28.6454 21.9774 28.6251 21.9535C28.6047 21.9296 28.5908 21.9009 28.5846 21.8701C28.1438 19.4224 30.35 16.5834 32.1252 14.3011C33.0014 13.1759 33.7586 12.2012 34.0941 11.4379C35.1647 9.02158 38.9825 6.57094 39.1459 6.46862C39.1696 6.45354 39.1965 6.44416 39.2245 6.44124C39.2525 6.43832 39.2808 6.44193 39.3071 6.45178L57.0269 13.0932C57.0593 13.1059 57.0877 13.127 57.1092 13.1544C60.1122 17.2499 52.5965 29.9612 52.2923 30.5041C52.2732 30.5358 52.2448 30.561 52.211 30.5761C52.1772 30.5913 52.1397 30.5957 52.1033 30.5889ZM28.9388 21.7058L52.0654 30.1909C52.8554 28.8204 59.4803 17.156 56.8553 13.4291L39.2726 6.83968C38.7283 7.20071 35.3783 9.46612 34.4319 11.6024C34.0756 12.4054 33.307 13.3961 32.4186 14.5407C30.7354 16.722 28.6042 19.4373 28.9388 21.7058Z" fill="#231F20"/>
<path d="M56.6521 23.2673L34.6038 17.9017C33.6326 17.6653 32.6538 18.2604 32.4177 19.2309L28.499 35.3333C28.2629 36.3037 28.8587 37.282 29.8299 37.5183L51.8782 42.884C52.8494 43.1203 53.8281 42.5252 54.0643 41.5548L57.9829 25.4524C58.2191 24.4819 57.6232 23.5036 56.6521 23.2673Z" fill="#C12B33"/>
<path d="M56.9743 13.2636C56.9743 13.2636 55.0615 13.0673 52.9914 16.6386C49.8243 22.1039 44.5154 33.972 41.9334 38.2936C38.1597 44.5759 32.2727 44.1676 32.2727 44.1676L9.21939 34.8898C9.21939 34.8898 19.7632 33.889 22.799 28.5637C25.9942 22.952 31.1592 12.1369 32.4249 9.74931C34.6627 5.51966 39.2617 6.63887 39.2617 6.63887L56.9743 13.2636Z" fill="white"/>
<path d="M32.2217 44.3307L32.197 44.3247L9.14368 35.0469C9.10583 35.0313 9.07419 35.0036 9.05371 34.9682C9.03323 34.9328 9.02505 34.8916 9.03044 34.8511C9.03612 34.8109 9.05508 34.7738 9.0843 34.7457C9.11352 34.7176 9.15132 34.7001 9.19167 34.6959C9.29831 34.6882 19.6814 33.6409 22.6334 28.4597C24.8487 24.5685 28.0499 18.1021 30.1657 13.8203C31.1153 11.9016 31.8664 10.3833 32.2541 9.65144C34.5328 5.34577 39.2507 6.43783 39.2966 6.449L57.0376 13.0956C57.0788 13.111 57.113 13.1409 57.1339 13.1797C57.1547 13.2185 57.1608 13.2635 57.1509 13.3063C57.1402 13.3489 57.1148 13.3863 57.0791 13.4118C57.0434 13.4374 56.9998 13.4494 56.9561 13.4459C56.9278 13.439 55.1118 13.3373 53.163 16.7325C51.5585 19.4975 49.4144 23.8957 47.3354 28.1491C45.3035 32.3167 43.3803 36.2528 42.1042 38.391C40.1354 41.6842 37.5834 43.1306 35.7624 43.7567C34.6395 44.1681 33.4493 44.3654 32.2535 44.3384L32.2217 44.3307ZM9.92878 34.9725L32.3041 43.9769C32.7379 43.9927 38.2606 44.0992 41.7767 38.1992C43.0424 36.0733 44.9674 32.1451 46.9967 27.9881C49.0738 23.7268 51.2268 19.3233 52.8339 16.5477C54.1933 14.2054 55.4908 13.4557 56.2694 13.1928L39.1904 6.79327C39.0279 6.75373 34.7216 5.76931 32.5752 9.82307C32.1928 10.5488 31.4426 12.0635 30.493 13.9822C28.3728 18.2666 25.1699 24.7401 22.9485 28.641C21.3504 31.4412 17.699 33.0388 14.9156 33.8831C13.2831 34.3706 11.6161 34.7348 9.92878 34.9725Z" fill="#231F20"/>
<path d="M38.7951 37.9674L38.7739 37.9622L35.6278 36.8227C35.5828 36.8061 35.5461 36.7724 35.5259 36.729C35.5056 36.6855 35.5034 36.6359 35.5196 36.5908C35.5274 36.5682 35.5396 36.5474 35.5556 36.5297C35.5716 36.512 35.591 36.4977 35.6127 36.4876C35.6343 36.4775 35.6578 36.4719 35.6817 36.4711C35.7055 36.4702 35.7293 36.4742 35.7517 36.4827L38.9013 37.6231C38.9463 37.6397 38.983 37.6734 39.0032 37.7168C39.0235 37.7603 39.0257 37.81 39.0095 37.8551C38.9932 37.8964 38.9626 37.9304 38.9232 37.951C38.8839 37.9717 38.8384 37.9775 38.7951 37.9674Z" fill="#D1D3D4"/>
<path d="M33.0968 35.8768L33.0756 35.8717L23.6678 32.4195C23.6228 32.4029 23.5862 32.3692 23.566 32.3258C23.5457 32.2823 23.5434 32.2326 23.5597 32.1875C23.5675 32.165 23.5797 32.1442 23.5957 32.1265C23.6117 32.1088 23.6311 32.0944 23.6528 32.0844C23.6744 32.0743 23.6979 32.0687 23.7218 32.0678C23.7456 32.067 23.7694 32.071 23.7917 32.0795L33.2039 35.529C33.2501 35.5432 33.2887 35.5752 33.3113 35.6178C33.3339 35.6605 33.3386 35.7104 33.3244 35.7565C33.3102 35.8026 33.2783 35.8412 33.2356 35.8638C33.1929 35.8863 33.143 35.891 33.0968 35.8768Z" fill="#D1D3D4"/>
<path d="M35.008 40.952L34.9868 40.9469L32.102 39.871C32.0795 39.8626 32.0589 39.8498 32.0413 39.8334C32.0237 39.817 32.0095 39.7973 31.9996 39.7755C31.9896 39.7536 31.984 39.73 31.9832 39.706C31.9824 39.682 31.9863 39.658 31.9947 39.6355C32.0031 39.613 32.0159 39.5924 32.0323 39.5748C32.0487 39.5573 32.0684 39.5431 32.0903 39.5332C32.1122 39.5232 32.1358 39.5177 32.1598 39.5168C32.1838 39.516 32.2078 39.5199 32.2303 39.5284L35.1151 40.6042C35.1379 40.6113 35.1592 40.6227 35.1776 40.638C35.196 40.6532 35.2113 40.6719 35.2224 40.6931C35.2336 40.7142 35.2406 40.7373 35.2428 40.7611C35.2451 40.7849 35.2426 40.8089 35.2356 40.8317C35.2285 40.8546 35.2171 40.8758 35.2018 40.8942C35.1866 40.9126 35.1679 40.9278 35.1467 40.939C35.1256 40.9502 35.1025 40.9571 35.0787 40.9593C35.0548 40.9616 35.0308 40.9591 35.008 40.952Z" fill="#D1D3D4"/>
<path d="M32.2648 44.1539C31.181 42.5233 30.4955 40.6612 30.2634 38.7176C30.0313 36.7741 30.2591 34.8034 30.9284 32.9642L6.94951 22.3396C6.94951 22.3396 7.05893 31.2529 9.20801 34.8753L32.2648 44.1539Z" fill="white"/>
<path d="M32.2217 44.3307L32.197 44.3247L9.14368 35.0469C9.10651 35.0307 9.0753 35.0034 9.0542 34.9688C6.90513 31.3465 6.77368 22.7082 6.76955 22.3408C6.76916 22.3106 6.77647 22.2808 6.7908 22.2542C6.80513 22.2276 6.826 22.205 6.85144 22.1887C6.87693 22.1711 6.9065 22.1603 6.93735 22.1574C6.96819 22.1544 6.99928 22.1594 7.02767 22.1718L31.0066 32.7965C31.0476 32.8163 31.0799 32.8506 31.0973 32.8928C31.1146 32.9349 31.1158 32.982 31.1006 33.025C30.4496 34.8381 30.2294 36.7778 30.4573 38.6909C30.6852 40.6039 31.3551 42.438 32.4139 44.0483C32.438 44.0778 32.4519 44.1142 32.4538 44.1522C32.4556 44.1902 32.4452 44.2278 32.4241 44.2594C32.4031 44.2911 32.3724 44.3151 32.3366 44.3281C32.3008 44.3411 32.2618 44.3422 32.2253 44.3314L32.2217 44.3307ZM9.33658 34.731L31.8003 43.7718C30.8513 42.1727 30.2613 40.3867 30.0711 38.5374C29.881 36.6882 30.0951 34.8199 30.6988 33.0618L7.13902 22.6214C7.18332 24.1613 7.47937 31.5236 9.33658 34.731Z" fill="#231F20"/>
<path d="M49.3193 17.2291L34.2067 11.6821C34.1838 11.6742 34.1627 11.6618 34.1448 11.6455C34.1268 11.6292 34.1124 11.6094 34.1023 11.5874C34.0923 11.5654 34.0868 11.5415 34.0863 11.5173C34.0858 11.4931 34.0903 11.469 34.0994 11.4466C34.116 11.4016 34.1497 11.365 34.1932 11.3448C34.2366 11.3246 34.2864 11.3223 34.3315 11.3386L49.4441 16.8856C49.4903 16.8994 49.5293 16.9309 49.5523 16.9733C49.5753 17.0157 49.5805 17.0655 49.5668 17.1118C49.553 17.158 49.5215 17.1969 49.479 17.2199C49.4366 17.2429 49.3868 17.248 49.3405 17.2343L49.3193 17.2291Z" fill="#D1D3D4"/>
<path d="M47.7148 21.0704L47.6936 21.0653L44.8566 20.0235C44.8341 20.015 44.8135 20.0023 44.7959 19.9859C44.7783 19.9695 44.7642 19.9498 44.7542 19.9279C44.7442 19.906 44.7387 19.8824 44.7378 19.8584C44.737 19.8344 44.7409 19.8105 44.7493 19.788C44.7578 19.7655 44.7705 19.7449 44.7869 19.7273C44.8033 19.7097 44.823 19.6956 44.8449 19.6856C44.8668 19.6757 44.8904 19.6701 44.9144 19.6693C44.9385 19.6685 44.9624 19.6724 44.9849 19.6808L47.8192 20.7182C47.8421 20.725 47.8634 20.7363 47.882 20.7513C47.9006 20.7664 47.916 20.7849 47.9274 20.8059C47.9388 20.8269 47.9459 20.85 47.9484 20.8737C47.9509 20.8975 47.9487 20.9215 47.9419 20.9444C47.9351 20.9673 47.9238 20.9886 47.9088 21.0071C47.8937 21.0257 47.8752 21.0411 47.8542 21.0525C47.8331 21.0639 47.8101 21.071 47.7863 21.0735C47.7626 21.0759 47.7385 21.0737 47.7156 21.0669L47.7148 21.0704Z" fill="#D1D3D4"/>
<path d="M41.7005 18.8633L32.6047 15.5281C32.5591 15.5116 32.522 15.4776 32.5014 15.4337C32.4809 15.3898 32.4787 15.3395 32.4952 15.294C32.5117 15.2484 32.5457 15.2113 32.5897 15.1908C32.6336 15.1703 32.6839 15.1681 32.7295 15.1846L41.8253 18.5197C41.8481 18.5268 41.8694 18.5382 41.8878 18.5535C41.9062 18.5687 41.9215 18.5874 41.9327 18.6086C41.9439 18.6297 41.9508 18.6528 41.953 18.6766C41.9553 18.7004 41.9528 18.7244 41.9458 18.7472C41.9387 18.7701 41.9273 18.7913 41.912 18.8097C41.8968 18.8281 41.8781 18.8433 41.8569 18.8545C41.8358 18.8657 41.8127 18.8726 41.7889 18.8748C41.7651 18.8771 41.7411 18.8746 41.7182 18.8676L41.7005 18.8633Z" fill="#D1D3D4"/>
<path d="M45.8478 24.5598L45.8267 24.5547L41.1515 22.8412C41.1064 22.8237 41.0699 22.7893 41.0499 22.7453C41.0298 22.7013 41.0278 22.6512 41.0442 22.6057C41.0617 22.5607 41.0961 22.5242 41.1401 22.5042C41.1842 22.4842 41.2343 22.4822 41.2798 22.4985L45.9505 24.2147C45.9731 24.2225 45.9939 24.2348 46.0116 24.2508C46.0294 24.2668 46.0437 24.2861 46.0538 24.3078C46.0639 24.3294 46.0696 24.3529 46.0704 24.3767C46.0712 24.4006 46.0673 24.4244 46.0587 24.4467C46.0433 24.4879 46.0134 24.522 45.9746 24.5429C45.9358 24.5637 45.8908 24.5697 45.8478 24.5598Z" fill="#D1D3D4"/>
<path d="M36.6696 21.1941L36.6484 21.1889L30.7234 18.9993C30.7009 18.9911 30.6801 18.9785 30.6624 18.9623C30.6447 18.9461 30.6303 18.9266 30.6202 18.9049C30.61 18.8831 30.6042 18.8596 30.6031 18.8356C30.6021 18.8117 30.6057 18.7877 30.6139 18.7652C30.6221 18.7426 30.6347 18.7219 30.6509 18.7042C30.6671 18.6865 30.6866 18.6721 30.7084 18.662C30.7301 18.6518 30.7537 18.6461 30.7777 18.645C30.8017 18.6439 30.8256 18.6476 30.8482 18.6558L36.781 20.8286C36.826 20.8461 36.8625 20.8806 36.8826 20.9246C36.9026 20.9685 36.9047 21.0186 36.8883 21.0641C36.8753 21.1096 36.8454 21.1483 36.8048 21.1725C36.7641 21.1967 36.7158 21.2044 36.6696 21.1941Z" fill="#D1D3D4"/>
<path d="M44.1704 27.8867L44.1492 27.8816L40.2543 26.4365C40.2093 26.4189 40.1728 26.3845 40.1527 26.3405C40.1327 26.2965 40.1306 26.2465 40.147 26.201C40.1653 26.1565 40.1998 26.1207 40.2436 26.1008C40.2873 26.0808 40.3371 26.0784 40.3826 26.0938L44.2774 27.5239C44.3237 27.5377 44.3626 27.5692 44.3856 27.6116C44.4086 27.654 44.4139 27.7038 44.4001 27.7501C44.3864 27.7963 44.3548 27.8352 44.3124 27.8582C44.27 27.8811 44.2201 27.8863 44.1739 27.8726L44.1704 27.8867Z" fill="#D1D3D4"/>
<path d="M36.1121 24.9316L36.0909 24.9265L29.0393 22.3393C28.9943 22.3227 28.9577 22.289 28.9374 22.2456C28.9171 22.2021 28.9149 22.1524 28.9311 22.1074C28.9486 22.0623 28.9831 22.0259 29.0271 22.0059C29.0711 21.9858 29.1212 21.9838 29.1667 22.0002L36.2148 24.5865C36.2617 24.5979 36.3021 24.6274 36.3271 24.6686C36.3522 24.7098 36.3599 24.7592 36.3485 24.806C36.3371 24.8528 36.3076 24.8931 36.2664 24.9182C36.2252 24.9432 36.1758 24.9509 36.1289 24.9395L36.1121 24.9316Z" fill="#D1D3D4"/>
<path d="M42.369 31.5827L38.9099 30.3147C38.8649 30.2981 38.8283 30.2645 38.808 30.221C38.7878 30.1776 38.7855 30.1279 38.8017 30.0828C38.8095 30.0602 38.8218 30.0395 38.8378 30.0217C38.8538 30.004 38.8732 29.9897 38.8948 29.9796C38.9165 29.9695 38.9399 29.9639 38.9638 29.9631C38.9877 29.9622 39.0115 29.9662 39.0338 29.9748L42.4929 31.2428C42.539 31.257 42.5777 31.2889 42.6003 31.3316C42.6229 31.3742 42.6276 31.4241 42.6134 31.4702C42.5992 31.5163 42.5672 31.5549 42.5245 31.5775C42.4819 31.6001 42.432 31.6048 42.3858 31.5906L42.369 31.5827Z" fill="#D1D3D4"/>
<path d="M36.7525 29.5257L36.7313 29.5206L27.2413 26.0372C27.1963 26.0206 27.1597 25.9869 27.1394 25.9435C27.1192 25.9 27.1169 25.8503 27.1331 25.8052C27.1409 25.7827 27.1532 25.7619 27.1692 25.7442C27.1852 25.7265 27.2046 25.7121 27.2262 25.7021C27.2479 25.692 27.2714 25.6864 27.2952 25.6855C27.3191 25.6847 27.3429 25.6887 27.3652 25.6972L36.8561 29.1771C36.9023 29.1908 36.9413 29.2224 36.9643 29.2648C36.9873 29.3072 36.9925 29.357 36.9788 29.4032C36.965 29.4495 36.9335 29.4883 36.891 29.5113C36.8486 29.5343 36.7988 29.5395 36.7525 29.5257Z" fill="#D1D3D4"/>
<path d="M40.7029 34.5244L40.6817 34.5192L36.5598 33.0076C36.5148 32.9911 36.4781 32.9574 36.4579 32.9139C36.4376 32.8705 36.4353 32.8208 36.4516 32.7757C36.4594 32.7531 36.4716 32.7324 36.4876 32.7146C36.5036 32.6969 36.523 32.6826 36.5447 32.6725C36.5663 32.6624 36.5898 32.6568 36.6137 32.656C36.6375 32.6552 36.6613 32.6591 36.6837 32.6677L40.8056 34.1792C40.8517 34.1934 40.8904 34.2254 40.913 34.268C40.9356 34.3107 40.9403 34.3606 40.9261 34.4067C40.9119 34.4528 40.8799 34.4914 40.8372 34.514C40.7946 34.5365 40.7446 34.5412 40.6985 34.527L40.7029 34.5244Z" fill="#D1D3D4"/>
<path d="M34.7155 32.3303L25.5914 28.9883C25.5458 28.9718 25.5087 28.9378 25.4882 28.8939C25.4676 28.85 25.4654 28.7997 25.4819 28.7542C25.4985 28.7086 25.5324 28.6715 25.5764 28.651C25.6203 28.6305 25.6706 28.6282 25.7162 28.6448L34.8402 31.9868C34.8864 32.001 34.925 32.033 34.9476 32.0756C34.9702 32.1183 34.9749 32.1682 34.9607 32.2143C34.9465 32.2604 34.9146 32.299 34.8719 32.3216C34.8292 32.3441 34.7793 32.3488 34.7332 32.3346L34.7155 32.3303Z" fill="#D1D3D4"/>
<path d="M51.3375 20.3204L56.6391 21.6106L57.3126 23.4579L50.4206 21.7806L51.3375 20.3204Z" fill="white"/>
<path fill-rule="evenodd" clip-rule="evenodd" d="M51.0725 20.2557C51.1081 20.1094 51.2556 20.0197 51.402 20.0554L58.2941 21.7326C58.4405 21.7682 58.5303 21.9157 58.4947 22.062C58.4591 22.2083 58.3115 22.298 58.1651 22.2624L51.2731 20.5851C51.1267 20.5495 51.0369 20.402 51.0725 20.2557Z" fill="#231F20"/>
</svg>
