<svg width="90" height="27" viewBox="0 0 90 27" fill="none" xmlns="http://www.w3.org/2000/svg">
<path d="M10.6944 5.63135C4.78342 5.63135 0 10.4148 0 16.3157C0 22.2166 4.78847 27 10.6944 27C16.6004 27 21.3838 22.2166 21.3838 16.3157C21.3838 10.4148 16.5953 5.63135 10.6944 5.63135ZM10.6944 25.8319C5.43064 25.8319 1.16299 21.5693 1.16299 16.3157C1.16299 11.062 5.43064 6.79939 10.6944 6.79939C15.9582 6.79939 20.2208 11.062 20.2208 16.3157C20.2208 21.5693 15.9531 25.8319 10.6944 25.8319Z" fill="#E30427"/>
<path fill-rule="evenodd" clip-rule="evenodd" d="M3.46875 12.2907C6.02226 13.4486 8.80332 15.7493 10.1028 18.7933C10.9827 14.5914 17.0706 3.66436 24.4784 0.165283C21.2726 2.77442 13.2024 13.5851 11.9687 22.1255C11.8928 22.6413 10.209 23.9357 9.42526 23.7537C9.3393 23.7335 9.25335 23.7183 9.23818 23.6526C8.57578 20.0574 7.10435 15.992 3.46875 12.2856" fill="#E30427"/>
<path d="M22.6426 9.2063H27.6485L31.1374 20.5227L34.5809 9.2063H39.4402L33.6859 24.937H28.498L22.6426 9.2063Z" fill="#E30427"/>
<path d="M40.9922 9.2063H53.8305V12.5638H45.7958V15.0617H53.2491V18.2725H45.7958V21.3722H54.0631V24.937H40.9922V9.2063Z" fill="#E30427"/>
<path d="M64.4352 19.2382V15.9667H71.8379V22.6716C70.4221 23.6525 69.168 24.32 68.0809 24.6739C66.9887 25.0279 65.6993 25.2049 64.2077 25.2049C62.3671 25.2049 60.8704 24.8863 59.7074 24.2492C58.5495 23.6121 57.6494 22.6665 57.0123 21.4075C56.3752 20.1484 56.0566 18.7023 56.0566 17.0741C56.0566 15.3549 56.4055 13.8632 57.1033 12.5941C57.8011 11.3249 58.8225 10.3591 60.1726 9.70176C61.2193 9.19611 62.6351 8.93823 64.4099 8.93823C66.1847 8.93823 67.4033 9.09498 68.2528 9.40848C69.1023 9.72198 69.8102 10.2125 70.3664 10.8749C70.9277 11.5373 71.3474 12.3766 71.6305 13.393L67.0089 14.2324C66.8168 13.6407 66.4982 13.1857 66.0432 12.8722C65.5881 12.5587 65.0066 12.4019 64.3037 12.4019C63.257 12.4019 62.4177 12.771 61.7957 13.5093C61.1738 14.2526 60.8603 15.4206 60.8603 17.0235C60.8603 18.7275 61.1738 19.9411 61.8058 20.6692C62.4379 21.3974 63.3127 21.7665 64.4403 21.7665C64.9762 21.7665 65.4869 21.6856 65.9724 21.5288C66.4578 21.3721 67.014 21.1041 67.6461 20.7249V19.2433H64.4403L64.4352 19.2382Z" fill="#E30427"/>
<path d="M84.2057 22.3379H78.77L78.0166 24.9318H73.127L78.952 9.20117H84.1753L90.0004 24.9318H84.9844L84.2107 22.3379H84.2057ZM83.2146 18.9349L81.5055 13.2817L79.8116 18.9349H83.2146Z" fill="#E30427"/>
</svg>
