<svg width="152" height="152" viewBox="0 0 152 152" fill="none" xmlns="http://www.w3.org/2000/svg">
<path d="M7.67578 24.1681V40.6602H24.1678H40.6598V24.1681V7.67614H24.1678H7.67578V24.1681ZM35.9478 24.1681V35.9482H24.1678H12.3878V24.1681V12.3881H24.1678H35.9478V24.1681Z" fill="black"/>
<path d="M17.0996 24.1683V31.2363H24.1676H31.2356V24.1683V17.1003H24.1676H17.0996V24.1683Z" fill="black"/>
<path d="M54.7953 14.7443V21.8123H59.5073H64.2193V24.1683V26.5243H61.8633H59.5073V28.8803V31.2363H57.1513H54.7953V28.8803V26.5243H52.4393H50.0833V24.1683V21.8123H47.7273H45.3713V31.2363V40.6603H47.7273H50.0833V38.3043V35.9483H52.4393H54.7953V40.6603V45.3723H45.3713H35.9473V47.7283V50.0843H43.0153H50.0833V54.7963V59.5083H54.7953H59.5073V54.7963V50.0843H57.1513H54.7953V47.7283V45.3723H59.5073H64.2193V50.0843V54.7963H66.5753H68.9313V57.1523V59.5083H66.5753H64.2193V61.8643V64.2203H61.8633H59.5073V71.2883V78.3562H61.8633H64.2193V80.7122V83.0682H50.0833H35.9473V85.4242V87.7802H38.3033H40.6593V90.1362V92.4922H38.3033H35.9473V94.8482V97.2042H40.6593H45.3713V92.4922V87.7802H52.4393H59.5073V90.1362V92.4922H54.7953H50.0833V97.2042V101.916H47.7273H45.3713V108.984V116.052H47.7273H50.0833V111.34V106.628H52.4393H54.7953V111.34V116.052H57.1513H59.5073V118.408V120.764H61.8633H64.2193V118.408V116.052H68.9313H73.6433V118.408V120.764H71.2873H68.9313V123.12V125.476H64.2193H59.5073V127.832V130.188H64.2193H68.9313V132.544V134.9H66.5753H64.2193V137.256V139.612H61.8633H59.5073V141.968V144.324H61.8633H64.2193V141.968V139.612H66.5753H68.9313V141.968V144.324H73.6433H78.3553V141.968V139.612H80.7113H83.0673V141.968V144.324H85.4233H87.7793V141.968V139.612H85.4233H83.0673V134.9V130.188H85.4233H87.7793V132.544V134.9H92.4913H97.2033V137.256V139.612H94.8473H92.4913V141.968V144.324H97.2033H101.915V141.968V139.612H104.271H106.627V137.256V134.9H111.339H116.051V139.612V144.324H118.407H120.763V139.612V134.9H118.407H116.051V132.544V130.188H118.407H120.763V127.832V125.476H123.119H125.475V123.12V120.764H127.831H130.187V123.12V125.476H132.543H134.899V127.832V130.188H132.543H130.187V132.544V134.9H127.831H125.475V137.256V139.612H127.831H130.187V141.968V144.324H134.899H139.611V141.968V139.612H137.255H134.899V137.256V134.9H137.255H139.611V132.544V130.188H141.967H144.323V123.12V116.052H141.967H139.611V118.408V120.764H137.255H134.899V118.408V116.052H130.187H125.475V106.628V97.2042H130.187H134.899V94.8482V92.4922H132.543H130.187V90.1362V87.7802H125.475H120.763V90.1362V92.4922H118.407H116.051V94.8482V97.2042H108.983H101.915V94.8482V92.4922H106.627H111.339V90.1362V87.7802H108.983H106.627V85.4242V83.0682H113.695H120.763V80.7122V78.3562H123.119H125.475V76.0003V73.6442H127.831H130.187V78.3562V83.0682H132.543H134.899V85.4242V87.7802H137.255H139.611V85.4242V83.0682H141.967H144.323V68.9323V54.7963H141.967H139.611V59.5083V64.2203H137.255H134.899V59.5083V54.7963H132.543H130.187V50.0843V45.3723H123.119H116.051V47.7283V50.0843H118.407H120.763V54.7963V59.5083H118.407H116.051V61.8643V64.2203H118.407H120.763V68.9323V73.6442H118.407H116.051V71.2883V68.9323H113.695H111.339V61.8643V54.7963H106.627H101.915V52.4403V50.0843H106.627H111.339V47.7283V45.3723H108.983H106.627V26.5243V7.67628H94.8473H83.0673V10.0323V12.3883H80.7113H78.3553V10.0323V7.67628H73.6433H68.9313V10.0323V12.3883H66.5753H64.2193V10.0323V7.67628H59.5073H54.7953V14.7443ZM78.3553 17.1003V21.8123H75.9993H73.6433V26.5243V31.2363H78.3553H83.0673V28.8803V26.5243H85.4233H87.7793V31.2363V35.9483H90.1353H92.4913V33.5923V31.2363H94.8473H97.2033V28.8803V26.5243H94.8473H92.4913V24.1683V21.8123H90.1353H87.7793V19.4563V17.1003H85.4233H83.0673V14.7443V12.3883H85.4233H87.7793V14.7443V17.1003H90.1353H92.4913V19.4563V21.8123H94.8473H97.2033V19.4563V17.1003H99.5593H101.915V28.8803V40.6603H99.5593H97.2033V38.3043V35.9483H94.8473H92.4913V45.3723V54.7963H90.1353H87.7793V57.1523V59.5083H92.4913H97.2033V57.1523V54.7963H99.5593H101.915V64.2203V73.6442H104.271H106.627V71.2883V68.9323H108.983H111.339V73.6442V78.3562H108.983H106.627V80.7122V83.0682H104.271H101.915V78.3562V73.6442H97.2033H92.4913V76.0003V78.3562H94.8473H97.2033V80.7122V83.0682H94.8473H92.4913V85.4242V87.7802H97.2033H101.915V90.1362V92.4922H99.5593H97.2033V94.8482V97.2042H99.5593H101.915V101.916V106.628H99.5593H97.2033V111.34V116.052H99.5593H101.915V120.764V125.476H99.5593H97.2033V127.832V130.188H92.4913H87.7793V127.832V125.476H85.4233H83.0673V123.12V120.764H80.7113H78.3553V123.12V125.476H75.9993H73.6433V127.832V130.188H75.9993H78.3553V134.9V139.612H73.6433H68.9313V137.256V134.9H71.2873H73.6433V132.544V130.188H71.2873H68.9313V127.832V125.476H71.2873H73.6433V123.12V120.764H75.9993H78.3553V118.408V116.052H75.9993H73.6433V113.696V111.34H71.2873H68.9313V108.984V106.628H73.6433H78.3553V111.34V116.052H80.7113H83.0673V111.34V106.628H85.4233H87.7793V111.34V116.052H90.1353H92.4913V111.34V106.628H94.8473H97.2033V101.916V97.2042H94.8473H92.4913V99.5602V101.916H87.7793H83.0673V99.5602V97.2042H80.7113H78.3553V94.8482V92.4922H73.6433H68.9313V94.8482V97.2042H71.2873H73.6433V99.5602V101.916H71.2873H68.9313V99.5602V97.2042H66.5753H64.2193V99.5602V101.916H61.8633H59.5073V104.272V106.628H61.8633H64.2193V111.34V116.052H61.8633H59.5073V111.34V106.628H57.1513H54.7953V101.916V97.2042H59.5073H64.2193V90.1362V83.0682H66.5753H68.9313V80.7122V78.3562H66.5753H64.2193V71.2883V64.2203H66.5753H68.9313V61.8643V59.5083H71.2873H73.6433V57.1523V54.7963H71.2873H68.9313V52.4403V50.0843H71.2873H73.6433V52.4403V54.7963H75.9993H78.3553V50.0843V45.3723H80.7113H83.0673V43.0163V40.6603H80.7113H78.3553V38.3043V35.9483H75.9993H73.6433V38.3043V40.6603H71.2873H68.9313V35.9483V31.2363H66.5753H64.2193V28.8803V26.5243H66.5753H68.9313V24.1683V21.8123H66.5753H64.2193V19.4563V17.1003H66.5753H68.9313V14.7443V12.3883H73.6433H78.3553V17.1003ZM64.2193 38.3043V40.6603H61.8633H59.5073V38.3043V35.9483H61.8633H64.2193V38.3043ZM139.611 76.0003V83.0682H137.255H134.899V78.3562V73.6442H132.543H130.187V71.2883V68.9323H134.899H139.611V76.0003ZM125.475 94.8482V97.2042H123.119H120.763V94.8482V92.4922H123.119H125.475V94.8482ZM120.763 113.696V120.764H113.695H106.627V113.696V106.628H113.695H120.763V113.696ZM116.051 127.832V130.188H113.695H111.339V127.832V125.476H113.695H116.051V127.832Z" fill="black"/>
<path d="M68.9316 19.456V21.812H71.2876H73.6436V19.456V17.1H71.2876H68.9316V19.456Z" fill="black"/>
<path d="M83.0684 38.3042V40.6602H85.4244H87.7804V38.3042V35.9482H85.4244H83.0684V38.3042Z" fill="black"/>
<path d="M83.0684 50.0839V54.7959H85.4244H87.7804V50.0839V45.3719H85.4244H83.0684V50.0839Z" fill="black"/>
<path d="M73.6436 61.8641V64.2201H71.2876H68.9316V66.5761V68.9321H71.2876H73.6436V73.6441V78.3561H75.9996H78.3556V80.7121V83.0681H75.9996H73.6436V85.4241V87.7801H78.3556H83.0676V92.4921V97.2041H85.4236H87.7796V94.8481V92.4921H90.1356H92.4916V90.1361V87.7801H87.7796H83.0676V83.0681V78.3561H85.4236H87.7796V76.0001V73.6441H90.1356H92.4916V71.2881V68.9321H90.1356H87.7796V71.2881V73.6441H85.4236H83.0676V66.5761V59.5081H78.3556H73.6436V61.8641ZM78.3556 66.5761V68.9321H75.9996H73.6436V66.5761V64.2201H75.9996H78.3556V66.5761ZM83.0676 76.0001V78.3561H80.7116H78.3556V76.0001V73.6441H80.7116H83.0676V76.0001Z" fill="black"/>
<path d="M83.0684 118.408V120.764H85.4244H87.7804V123.12V125.476H92.4924H97.2043V120.764V116.052H94.8484H92.4924V118.408V120.764H90.1364H87.7804V118.408V116.052H85.4244H83.0684V118.408Z" fill="black"/>
<path d="M111.34 113.696V116.052H113.696H116.052V113.696V111.34H113.696H111.34V113.696Z" fill="black"/>
<path d="M111.34 24.1681V40.6602H127.832H144.324V24.1681V7.67614H127.832H111.34V24.1681ZM139.612 24.1681V35.9482H127.832H116.052V24.1681V12.3881H127.832H139.612V24.1681Z" fill="black"/>
<path d="M120.764 24.1683V31.2363H127.832H134.9V24.1683V17.1003H127.832H120.764V24.1683Z" fill="black"/>
<path d="M45.3711 14.7441V17.1001H47.7271H50.0831V14.7441V12.3881H47.7271H45.3711V14.7441Z" fill="black"/>
<path d="M12.3878 47.7279V50.0839H10.0318H7.67578V52.4399V54.7959H12.3878H17.0998V50.0839V45.3719H14.7438H12.3878V47.7279Z" fill="black"/>
<path d="M21.8118 50.0842V54.7962H24.1678H26.5238V57.1522V59.5082H24.1678H21.8118V61.8642V64.2202H14.7438H7.67578V66.5762V68.9322H14.7438H21.8118V80.7122V92.4922H24.1678H26.5238V90.1362V87.7802H28.8798H31.2358V83.0682V78.3562H35.9478H40.6597V76.0002V73.6442H45.3717H50.0837V76.0002V78.3562H52.4397H54.7957V76.0002V73.6442H52.4397H50.0837V71.2882V68.9322H52.4397H54.7957V66.5762V64.2202H52.4397H50.0837V66.5762V68.9322H47.7277H45.3717V66.5762V64.2202H40.6597H35.9478V61.8642V59.5082H40.6597H45.3717V57.1522V54.7962H40.6597H35.9478V57.1522V59.5082H33.5918H31.2358V57.1522V54.7962H28.8798H26.5238V52.4402V50.0842H28.8798H31.2358V47.7282V45.3722H26.5238H21.8118V50.0842ZM31.2358 61.8642V64.2202H33.5918H35.9478V66.5762V68.9322H38.3037H40.6597V71.2882V73.6442H38.3037H35.9478V71.2882V68.9322H33.5918H31.2358V73.6442V78.3562H28.8798H26.5238V73.6442V68.9322H24.1678H21.8118V66.5762V64.2202H24.1678H26.5238V61.8642V59.5082H28.8798H31.2358V61.8642Z" fill="black"/>
<path d="M134.9 47.728V50.084H137.256H139.612V47.728V45.372H137.256H134.9V47.728Z" fill="black"/>
<path d="M7.67578 78.3559V83.0679H10.0318H12.3878V78.3559V73.6439H10.0318H7.67578V78.3559Z" fill="black"/>
<path d="M7.67578 97.2039V106.628H12.3878H17.0998V104.272V101.916H19.4558H21.8118V99.5599V97.2039H19.4558H17.0998V94.8479V92.4919H14.7438H12.3878V90.1359V87.7799H10.0318H7.67578V97.2039Z" fill="black"/>
<path d="M139.611 101.916V111.34H141.967H144.323V101.916V92.4919H141.967H139.611V101.916Z" fill="black"/>
<path d="M26.5234 99.56V101.916H28.8794H31.2354V99.56V97.204H28.8794H26.5234V99.56Z" fill="black"/>
<path d="M35.9473 104.272V106.628H38.3033H40.6593V104.272V101.916H38.3033H35.9473V104.272Z" fill="black"/>
<path d="M130.188 106.628V111.34H132.543H134.899V106.628V101.916H132.543H130.188V106.628Z" fill="black"/>
<path d="M7.67578 127.832V144.324H24.1678H40.6598V127.832V111.34H24.1678H7.67578V127.832ZM35.9478 127.832V139.612H24.1678H12.3878V127.832V116.052H24.1678H35.9478V127.832Z" fill="black"/>
<path d="M17.0996 127.832V134.9H24.1676H31.2356V127.832V120.764H24.1676H17.0996V127.832Z" fill="black"/>
<path d="M45.3711 125.476V130.188H47.7271H50.0831V132.544V134.9H47.7271H45.3711V137.256V139.612H50.0831H54.7951V134.9V130.188H52.4391H50.0831V127.832V125.476H52.4391H54.7951V123.12V120.764H50.0831H45.3711V125.476Z" fill="black"/>
</svg>
