<svg width="340" height="272" viewBox="0 0 340 272" fill="none" xmlns="http://www.w3.org/2000/svg">
<path d="M308.24 230.248H31.762C31.6298 230.248 31.5031 230.196 31.4096 230.102C31.3162 230.009 31.2637 229.882 31.2637 229.75C31.2637 229.618 31.3162 229.491 31.4096 229.397C31.5031 229.304 31.6298 229.252 31.762 229.252H308.24C308.372 229.252 308.499 229.304 308.592 229.397C308.686 229.491 308.738 229.618 308.738 229.75C308.738 229.882 308.686 230.009 308.592 230.102C308.499 230.196 308.372 230.248 308.24 230.248Z" fill="#D1D3D4"/>
<path d="M288.746 30.749H134.441V141.631H288.746V30.749Z" fill="white"/>
<path d="M288.756 142.129H134.442C134.31 142.129 134.183 142.077 134.089 141.983C133.996 141.89 133.943 141.763 133.943 141.631V30.7487C133.943 30.6165 133.996 30.4898 134.089 30.3963C134.183 30.3029 134.31 30.2504 134.442 30.2504H288.756C288.888 30.2504 289.015 30.3029 289.108 30.3963C289.202 30.4898 289.254 30.6165 289.254 30.7487V141.631C289.254 141.763 289.202 141.89 289.108 141.983C289.015 142.077 288.888 142.129 288.756 142.129ZM134.94 141.133H288.257V31.247H134.94V141.133Z" fill="#D1D3D4"/>
<path d="M183.475 140.704C183.344 140.701 183.218 140.648 183.125 140.555C183.032 140.462 182.979 140.337 182.977 140.206V30.7487C182.977 30.6165 183.029 30.4898 183.123 30.3963C183.216 30.3029 183.343 30.2504 183.475 30.2504C183.607 30.2504 183.734 30.3029 183.827 30.3963C183.921 30.4898 183.973 30.6165 183.973 30.7487V140.206C183.973 140.338 183.921 140.465 183.827 140.558C183.734 140.651 183.607 140.704 183.475 140.704Z" fill="#D1D3D4"/>
<path d="M239.762 140.704C239.63 140.704 239.503 140.651 239.41 140.558C239.316 140.465 239.264 140.338 239.264 140.206V30.7487C239.264 30.6165 239.316 30.4898 239.41 30.3963C239.503 30.3029 239.63 30.2504 239.762 30.2504C239.894 30.2504 240.021 30.3029 240.114 30.3963C240.208 30.4898 240.26 30.6165 240.26 30.7487V140.206C240.26 140.338 240.208 140.465 240.114 140.558C240.021 140.651 239.894 140.704 239.762 140.704Z" fill="#D1D3D4"/>
<path d="M288.756 36.2419H134.442C134.31 36.2394 134.185 36.186 134.092 36.0931C133.999 36.0002 133.946 35.875 133.943 35.7436C133.943 35.6114 133.996 35.4847 134.089 35.3912C134.183 35.2978 134.31 35.2453 134.442 35.2453H288.756C288.888 35.2453 289.015 35.2978 289.108 35.3912C289.202 35.4847 289.254 35.6114 289.254 35.7436C289.254 35.8758 289.202 36.0025 289.108 36.096C289.015 36.1894 288.888 36.2419 288.756 36.2419Z" fill="#D1D3D4"/>
<path d="M288.756 42.3405H134.442C134.31 42.3405 134.183 42.288 134.089 42.1946C133.996 42.1011 133.943 41.9744 133.943 41.8422C133.943 41.7101 133.996 41.5833 134.089 41.4899C134.183 41.3964 134.31 41.3439 134.442 41.3439H288.756C288.888 41.3439 289.015 41.3964 289.108 41.4899C289.202 41.5833 289.254 41.7101 289.254 41.8422C289.254 41.9744 289.202 42.1011 289.108 42.1946C289.015 42.288 288.888 42.3405 288.756 42.3405Z" fill="#D1D3D4"/>
<path d="M288.756 48.3778H134.442C134.31 48.3778 134.183 48.3253 134.089 48.2318C133.996 48.1384 133.943 48.0116 133.943 47.8795C133.946 47.7481 133.999 47.6228 134.092 47.5299C134.185 47.437 134.31 47.3837 134.442 47.3812H288.756C288.888 47.3812 289.015 47.4337 289.108 47.5271C289.202 47.6206 289.254 47.7473 289.254 47.8795C289.254 48.0116 289.202 48.1384 289.108 48.2318C289.015 48.3253 288.888 48.3778 288.756 48.3778Z" fill="#D1D3D4"/>
<path d="M288.756 54.4566H134.442C134.31 54.4541 134.185 54.4008 134.092 54.3078C133.999 54.2149 133.946 54.0897 133.943 53.9583C133.943 53.8262 133.996 53.6994 134.089 53.606C134.183 53.5125 134.31 53.46 134.442 53.46H288.756C288.888 53.46 289.015 53.5125 289.108 53.606C289.202 53.6994 289.254 53.8262 289.254 53.9583C289.254 54.0905 289.202 54.2172 289.108 54.3107C289.015 54.4041 288.888 54.4566 288.756 54.4566Z" fill="#D1D3D4"/>
<path d="M288.756 137.018H134.442C134.31 137.018 134.183 136.966 134.089 136.872C133.996 136.779 133.943 136.652 133.943 136.52C133.946 136.388 133.999 136.263 134.092 136.17C134.185 136.077 134.31 136.024 134.442 136.021H288.756C288.888 136.021 289.015 136.074 289.108 136.167C289.202 136.261 289.254 136.388 289.254 136.52C289.254 136.652 289.202 136.779 289.108 136.872C289.015 136.966 288.888 137.018 288.756 137.018Z" fill="#D1D3D4"/>
<path d="M288.876 185.321C288.989 183.71 288.643 182.1 287.879 180.677C287.131 179.739 286.436 178.761 285.796 177.747C284.909 175.853 285.527 173.641 285.318 171.568C285.14 169.835 284.377 168.215 283.155 166.974C282.069 165.877 280.674 165.13 279.647 163.984C277.953 162.11 277.464 159.479 276.498 157.147C275.13 153.845 272.759 151.056 269.721 149.174C271.575 152.892 267.359 157.615 269.272 161.303C269.87 162.479 271.026 163.296 271.475 164.572C272.541 167.562 268.973 170.8 270.12 173.76C270.688 175.245 272.272 176.102 273.01 177.508C274.006 179.401 273.229 181.703 273.309 183.836C273.418 186.826 275.212 189.427 277.345 191.47C278.67 192.736 280.155 193.842 281.59 194.988C283.305 196.363 284.032 197.808 285.577 195.606C287.652 192.571 288.798 188.997 288.876 185.321Z" fill="#231F20"/>
<path d="M290.8 187.006C290.242 184.723 289.853 182.252 290.8 180.099C291.856 177.658 294.477 175.943 294.786 173.302C294.986 171.578 294.109 169.834 294.448 168.13C294.786 166.426 296.192 165.26 297.338 164.004C299.981 161.096 301.552 157.373 301.793 153.45C303.561 155.541 304.993 157.895 306.038 160.426C306.545 161.707 306.753 163.086 306.645 164.459C306.538 165.832 306.119 167.163 305.42 168.349C304.975 168.876 304.612 169.468 304.344 170.103C303.826 171.788 305.261 173.352 306.008 174.947C306.448 175.858 306.631 176.873 306.538 177.88C306.445 178.888 306.079 179.852 305.48 180.667C303.975 182.551 301.065 183.278 300.328 185.571C300.141 186.425 300.054 187.298 300.068 188.172C299.912 189.687 299.305 191.12 298.326 192.287C297.348 193.454 296.042 194.301 294.577 194.719C292.793 195.158 292.823 194.45 292.504 192.945C292.056 190.972 291.278 189.019 290.8 187.006Z" fill="#231F20"/>
<path d="M285.119 170.591C283.853 166.206 283.345 161.622 282.009 157.267C280.868 153.848 279.479 150.517 277.854 147.301L283.295 149.593C285.039 150.331 286.933 151.198 287.75 152.902C289.185 155.892 286.614 159.679 288.119 162.609C288.771 163.559 289.49 164.462 290.271 165.309C291.866 167.562 291.627 170.651 290.75 173.282C290.371 174.398 288.756 180.259 287.251 178.604C286.654 177.956 286.604 175.545 286.365 174.618C285.976 173.302 285.507 171.957 285.119 170.591Z" fill="#231F20"/>
<path d="M288.06 228.854C286.983 221.688 283.585 196.425 283.545 196.165L284.542 196.036C284.542 196.295 287.97 221.539 289.046 228.705L288.06 228.854Z" fill="#231F20"/>
<path d="M289.395 235.609H288.398C288.458 227.098 292.016 194.559 294.059 192.316L294.797 192.994C293.232 194.698 289.465 226.161 289.395 235.609Z" fill="#231F20"/>
<path d="M291.237 233.997L290.24 233.947C291.048 215.61 287.161 177.071 287.121 176.692L288.118 176.593C288.158 176.972 292.054 215.58 291.237 233.997Z" fill="#231F20"/>
<path d="M278.77 208.313H299.02L297.565 231.304C297.326 235.291 294.376 238.36 290.818 238.36H286.902C283.354 238.36 280.404 235.281 280.155 231.304L278.77 208.313Z" fill="white"/>
<path d="M290.85 238.878H286.933C283.126 238.878 279.957 235.56 279.678 231.334L278.263 208.342C278.258 208.271 278.268 208.2 278.292 208.134C278.316 208.067 278.354 208.005 278.402 207.954C278.45 207.903 278.507 207.863 278.57 207.836C278.634 207.809 278.702 207.794 278.771 207.794H299.022C299.092 207.794 299.162 207.808 299.226 207.836C299.291 207.864 299.349 207.905 299.396 207.957C299.444 208.008 299.481 208.069 299.504 208.136C299.527 208.202 299.536 208.272 299.53 208.342L298.115 231.334C297.856 235.56 294.667 238.878 290.85 238.878ZM279.319 208.821L280.704 231.264C280.934 234.962 283.694 237.852 286.933 237.852H290.85C294.119 237.852 296.83 234.962 297.089 231.264L298.474 208.821H279.319Z" fill="#231F20"/>
<path d="M109.806 157.429C108.81 159.472 110.325 161.276 114.112 161.276H124.476C126.021 161.276 129.888 156.661 127.954 154.299C126.021 151.937 110.813 155.396 109.806 157.429Z" fill="#231F20"/>
<path d="M124.476 161.773H114.111C111.799 161.773 110.124 161.125 109.387 159.939C109.146 159.524 109.02 159.053 109.02 158.574C109.02 158.094 109.146 157.623 109.387 157.209C110.214 155.534 117.36 153.701 121.884 153.222C125.412 152.823 127.595 153.093 128.352 154.029C129.11 154.966 129.209 156.481 128.442 158.106C127.675 159.73 125.731 161.773 124.476 161.773ZM124.665 153.999C123.765 154.01 122.867 154.07 121.974 154.179C116.612 154.787 110.732 156.68 110.254 157.647C110.101 157.916 110.021 158.22 110.021 158.529C110.021 158.838 110.101 159.142 110.254 159.411C110.792 160.278 112.247 160.776 114.131 160.776H124.495C125.113 160.776 126.728 159.371 127.545 157.637C127.884 156.91 128.352 155.554 127.545 154.647C127.296 154.279 126.389 153.96 124.665 153.96V153.999Z" fill="#231F20"/>
<path d="M137.948 148.788C134.71 149.576 131.395 150.01 128.062 150.083C125.64 150.083 123.448 149.366 121.086 149.804C118.729 150.229 116.51 151.217 114.618 152.684C114.359 152.894 114.08 153.183 114.169 153.502C114.201 153.592 114.251 153.675 114.316 153.745C114.381 153.816 114.46 153.872 114.548 153.91C115.545 154.418 116.541 153.801 117.458 153.551C118.411 153.299 119.392 153.165 120.378 153.153C122.463 153.027 124.529 153.603 126.248 154.787C126.504 154.943 126.697 155.182 126.796 155.465C126.817 155.624 126.799 155.787 126.744 155.938C126.688 156.089 126.597 156.224 126.478 156.332C126.227 156.537 125.944 156.699 125.64 156.81L122.471 158.186C122.302 158.255 122.092 158.405 122.162 158.584C122.232 158.764 122.302 158.724 122.391 158.764C125.531 159.91 128.859 157.767 131.859 157.119C135.139 156.383 138.471 155.903 141.825 155.684C140.603 153.635 140.227 151.189 140.779 148.867" fill="white"/>
<path d="M124.325 159.551C123.602 159.559 122.883 159.437 122.203 159.193C122.09 159.16 121.986 159.103 121.898 159.025C121.811 158.948 121.741 158.852 121.694 158.744C121.575 158.435 121.694 158.007 122.252 157.748L125.422 156.372C125.675 156.283 125.911 156.152 126.119 155.984C126.183 155.93 126.233 155.863 126.266 155.787C126.299 155.711 126.314 155.628 126.309 155.545C126.309 155.396 126.089 155.246 125.94 155.136C124.299 154.016 122.332 153.473 120.349 153.592C119.4 153.599 118.456 153.726 117.538 153.97C117.332 154.023 117.129 154.09 116.931 154.17C116.524 154.377 116.079 154.495 115.623 154.516C115.167 154.537 114.713 154.459 114.29 154.289C114.149 154.222 114.024 154.128 113.922 154.011C113.819 153.895 113.741 153.759 113.692 153.612C113.562 153.163 113.771 152.725 114.3 152.316C115.84 151.047 117.638 150.128 119.569 149.624C121.5 149.119 123.517 149.042 125.481 149.396C126.341 149.515 127.206 149.588 128.073 149.615C131.372 149.534 134.653 149.1 137.859 148.32C137.977 148.296 138.099 148.32 138.199 148.386C138.299 148.452 138.369 148.556 138.392 148.673C138.416 148.791 138.392 148.913 138.326 149.013C138.26 149.113 138.156 149.183 138.039 149.207C134.772 149.996 131.432 150.437 128.073 150.522C127.172 150.496 126.274 150.423 125.382 150.303C123.978 150.066 122.547 150.042 121.136 150.233C118.853 150.645 116.702 151.603 114.868 153.024C114.598 153.243 114.579 153.362 114.579 153.362C114.579 153.362 114.579 153.412 114.738 153.482C115.048 153.585 115.377 153.624 115.702 153.594C116.028 153.565 116.344 153.469 116.632 153.313L117.299 153.093C118.276 152.835 119.279 152.694 120.289 152.675C122.473 152.55 124.637 153.156 126.438 154.399C126.783 154.614 127.038 154.947 127.156 155.336C127.202 155.574 127.184 155.819 127.106 156.048C127.027 156.277 126.89 156.482 126.707 156.641C126.411 156.888 126.074 157.08 125.711 157.209L122.87 158.445C124.864 158.953 126.907 158.226 128.9 157.518C129.799 157.178 130.717 156.892 131.65 156.661C134.72 155.963 137.839 155.496 140.979 155.266C139.965 153.247 139.7 150.934 140.231 148.738C140.244 148.679 140.269 148.624 140.303 148.575C140.338 148.526 140.382 148.484 140.433 148.453C140.485 148.421 140.542 148.4 140.601 148.391C140.66 148.382 140.721 148.385 140.779 148.399C140.895 148.43 140.994 148.504 141.055 148.607C141.116 148.709 141.135 148.831 141.108 148.948C140.581 151.157 140.938 153.486 142.105 155.435C142.144 155.502 142.165 155.577 142.165 155.655C142.165 155.732 142.144 155.808 142.105 155.874C142.069 155.945 142.015 156.005 141.948 156.049C141.882 156.092 141.805 156.118 141.726 156.123C138.395 156.334 135.085 156.81 131.83 157.548C130.933 157.77 130.051 158.046 129.189 158.375C127.642 159.029 126 159.426 124.325 159.551Z" fill="#231F20"/>
<path d="M193.41 185.43H181.74V194.818H193.41V185.43Z" fill="white"/>
<path d="M193.412 195.266H181.742C181.682 195.266 181.623 195.254 181.568 195.231C181.513 195.208 181.463 195.174 181.421 195.131C181.379 195.089 181.346 195.038 181.324 194.982C181.302 194.927 181.292 194.867 181.293 194.808V185.43C181.292 185.37 181.302 185.311 181.324 185.255C181.346 185.199 181.379 185.149 181.421 185.106C181.463 185.063 181.513 185.029 181.568 185.006C181.623 184.983 181.682 184.971 181.742 184.971H193.412C193.533 184.971 193.65 185.02 193.736 185.106C193.822 185.192 193.87 185.308 193.87 185.43V194.818C193.868 194.938 193.818 195.052 193.732 195.135C193.647 195.219 193.532 195.266 193.412 195.266ZM182.2 194.359H192.923V185.848H182.2V194.359Z" fill="#231F20"/>
<path d="M191.129 194.73H184.023V236.757H191.129V194.73Z" fill="#231F20"/>
<path d="M191.129 237.245H184.024C183.892 237.245 183.765 237.192 183.671 237.099C183.578 237.005 183.525 236.878 183.525 236.746V194.73C183.525 194.597 183.578 194.471 183.671 194.377C183.765 194.284 183.892 194.231 184.024 194.231H191.129C191.262 194.231 191.388 194.284 191.482 194.377C191.575 194.471 191.628 194.597 191.628 194.73V236.746C191.628 236.878 191.575 237.005 191.482 237.099C191.388 237.192 191.262 237.245 191.129 237.245ZM184.522 236.248H190.631V195.228H184.522V236.248Z" fill="#231F20"/>
<path d="M209.556 239.966C195.713 235.673 180.894 235.673 167.051 239.966H209.556Z" fill="#231F20"/>
<path d="M209.556 240.464H167.011C166.893 240.465 166.778 240.423 166.688 240.346C166.598 240.269 166.54 240.162 166.523 240.045C166.503 239.927 166.526 239.806 166.588 239.703C166.65 239.601 166.747 239.524 166.862 239.487C180.818 235.159 195.759 235.159 209.716 239.487C209.829 239.526 209.924 239.603 209.986 239.705C210.048 239.807 210.072 239.927 210.054 240.045C210.035 240.163 209.974 240.27 209.883 240.347C209.792 240.424 209.675 240.465 209.556 240.464ZM170.589 239.467H206.018C194.394 236.506 182.213 236.506 170.589 239.467Z" fill="#231F20"/>
<path d="M119.983 229.203C119.496 230.369 118.647 231.347 117.561 231.993C116.226 232.601 100.439 236.099 100.688 238.362C100.938 240.624 102.562 241.112 106.758 241.272C112.379 241.481 130.298 239.966 130.298 239.966V230.419L119.983 229.203Z" fill="white"/>
<path d="M108.021 241.75H106.736C102.47 241.58 100.517 241.062 100.228 238.421C100.039 236.667 105.022 234.983 114.29 232.441C115.785 232.043 117.07 231.694 117.369 231.554C118.339 230.959 119.101 230.078 119.552 229.033C119.586 228.934 119.653 228.85 119.742 228.795C119.831 228.741 119.937 228.719 120.04 228.734L130.355 229.94C130.466 229.955 130.568 230.009 130.641 230.094C130.715 230.178 130.755 230.286 130.754 230.398V239.946C130.754 240.06 130.711 240.17 130.633 240.253C130.555 240.336 130.449 240.387 130.335 240.394C129.658 240.474 114.589 241.75 108.021 241.75ZM120.26 229.701C119.72 230.846 118.839 231.796 117.738 232.422C117.399 232.571 116.403 232.85 114.519 233.358C105.55 235.78 101.045 237.444 101.135 238.341C101.334 240.165 102.49 240.683 106.766 240.843C111.828 241.042 127.116 239.796 129.847 239.577V230.847L120.26 229.701Z" fill="#231F20"/>
<path d="M162.227 231.384C162.227 231.384 145.185 237.234 144.457 238.36C143.73 239.487 145.025 240.772 149.56 241.181C154.094 241.589 173.478 240.533 173.478 240.533C173.478 240.533 173.718 235.271 172.482 232.56C171.246 229.849 162.227 231.384 162.227 231.384Z" fill="white"/>
<path d="M152.799 241.729C151.413 241.729 150.267 241.729 149.52 241.63C146.41 241.351 144.537 240.633 143.959 239.547C143.845 239.319 143.796 239.065 143.817 238.812C143.838 238.559 143.929 238.317 144.078 238.112C144.836 236.946 158.031 232.341 162.077 230.956H162.157C163.153 230.806 171.634 229.531 172.95 232.431C174.196 235.172 173.946 240.354 173.946 240.573C173.939 240.686 173.89 240.792 173.809 240.872C173.728 240.951 173.621 240.997 173.508 241.002C172.87 241.022 159.755 241.729 152.799 241.729ZM162.336 231.833C154.363 234.584 145.473 237.892 144.826 238.62C144.769 238.696 144.734 238.787 144.725 238.882C144.716 238.977 144.734 239.072 144.776 239.158C145.055 239.726 146.47 240.444 149.599 240.723C153.676 241.081 170.209 240.244 173.059 240.095C173.059 238.819 173.059 234.903 172.123 232.79C171.345 231.076 165.724 231.295 162.336 231.833Z" fill="#231F20"/>
<path d="M229.986 113.157H182.408C182.408 113.157 178.851 155.751 176.578 165.737C174.306 175.723 165.097 178.633 158.301 178.464C151.504 178.295 134.023 176.381 133.385 178.464C132.748 180.547 134.522 184.603 141.956 186.547C149.391 188.49 194.597 188.171 194.597 188.171C194.597 188.171 210.413 183.188 219.153 172.305C227.893 161.422 232.418 123.422 229.986 113.157Z" fill="white"/>
<path d="M187.023 188.661C173.788 188.661 147.458 188.472 141.837 186.997C136.216 185.522 134.223 183.07 133.465 181.715C133.16 181.215 132.957 180.661 132.866 180.083C132.776 179.505 132.8 178.915 132.937 178.346C133.436 176.722 138.708 176.801 151.115 177.619C153.886 177.798 156.497 177.967 158.311 178.017C165.536 178.187 174.007 175.027 176.14 165.629C178.372 155.793 181.92 113.547 181.95 113.118C181.962 113.005 182.016 112.899 182.1 112.822C182.185 112.745 182.294 112.702 182.409 112.7H229.986C230.09 112.7 230.19 112.736 230.27 112.801C230.349 112.867 230.404 112.957 230.425 113.059C232.867 123.353 228.512 161.394 219.462 172.606C210.732 183.459 194.836 188.551 194.677 188.611C194.634 188.621 194.59 188.621 194.547 188.611C194.139 188.641 191.249 188.661 187.023 188.661ZM138.668 177.957C136.017 177.957 134.043 178.127 133.804 178.615C133.602 179.525 133.767 180.477 134.263 181.266C134.95 182.502 136.874 184.764 142.066 186.12C149.232 187.993 192.484 187.734 194.507 187.724C195.614 187.365 210.513 182.332 218.785 172.038C227.365 161.364 231.741 124.031 229.618 113.617H182.827C182.448 118.061 179.15 156.471 177.027 165.839C175.552 172.347 169.851 179.183 158.281 178.924C156.457 178.924 153.836 178.705 151.055 178.525C147.627 178.296 142.455 177.957 138.668 177.957Z" fill="#231F20"/>
<path d="M210.861 173.372C210.861 173.372 224.764 138.621 223.299 121.489C221.834 104.357 210.622 103.301 206.735 103.062C202.848 102.823 182.219 100.072 174.694 109.29C167.17 118.509 169.133 162.928 169.133 162.928L210.861 173.372Z" fill="#C12B33"/>
<path d="M162.226 165.85C162.226 165.85 147.446 163.389 141.128 168.97C134.809 174.551 118.645 229.703 118.645 229.703C118.645 229.703 122.043 235.045 131.022 232.374L167.438 174.351C167.438 174.351 170.089 165.651 162.226 165.85Z" fill="#231F20"/>
<path d="M126.25 233.608C120.639 233.608 118.347 230.14 118.277 229.96C118.238 229.9 118.213 229.833 118.203 229.763C118.192 229.692 118.197 229.62 118.217 229.552C118.885 227.289 134.501 174.21 140.85 168.589C147.198 162.969 161.22 165.171 162.307 165.351C164.569 165.301 166.293 165.958 167.29 167.344C169.283 170.005 168.027 174.32 167.977 174.519C167.966 174.563 167.945 174.603 167.918 174.639L131.512 232.651C131.443 232.751 131.346 232.827 131.233 232.87C129.616 233.356 127.938 233.605 126.25 233.608ZM119.194 229.621C119.861 230.499 123.18 234.126 130.704 231.954L166.981 174.151C167.12 173.642 168.037 170.025 166.443 167.922C165.605 166.835 164.19 166.297 162.237 166.357H162.147C161.998 166.357 147.517 163.995 141.458 169.347C135.398 174.699 120.35 225.715 119.174 229.602L119.194 229.621Z" fill="#231F20"/>
<path d="M210.861 173.372C210.861 173.372 183.674 161.473 175.422 160.267C175.422 160.267 160.124 157.347 154.055 168.518C147.986 179.69 162.197 231.384 162.197 231.384C165.521 233.347 169.445 234.038 173.239 233.328L177.973 182.86C177.973 182.86 211.858 185.261 210.861 173.372Z" fill="#231F20"/>
<path d="M170.32 234.104C167.372 234.113 164.477 233.317 161.949 231.802C161.849 231.733 161.779 231.63 161.749 231.513C161.161 229.4 147.558 179.49 153.647 168.278C159.826 156.917 175.383 159.747 175.572 159.767C183.774 160.973 210.005 172.424 211.121 172.913C211.204 172.949 211.276 173.007 211.329 173.08C211.382 173.154 211.413 173.241 211.42 173.331C211.5 174.218 211.379 175.112 211.064 175.946C210.75 176.779 210.252 177.531 209.606 178.145C203.238 184.593 182 183.636 178.403 183.427L173.788 233.377C173.779 233.483 173.735 233.584 173.663 233.663C173.591 233.742 173.495 233.796 173.39 233.815C172.379 234.012 171.35 234.109 170.32 234.104ZM162.656 231.114C165.732 232.858 169.309 233.508 172.802 232.958L177.426 182.859C177.443 182.73 177.508 182.613 177.608 182.53C177.707 182.447 177.835 182.404 177.964 182.41C178.203 182.41 202.371 184.025 208.859 177.427C209.365 176.946 209.763 176.363 210.029 175.718C210.296 175.072 210.423 174.378 210.404 173.68C207.494 172.424 183.017 161.86 175.373 160.724C175.194 160.724 160.334 158.013 154.514 168.697C148.804 179.281 161.729 227.636 162.656 231.064V231.114Z" fill="#231F20"/>
<path d="M174.724 109.291C174.724 109.291 169.153 119.994 165.864 125.496C162.575 130.997 155.459 138.89 155.459 138.89C155.459 138.89 130.215 147.859 130.056 148.348C129.897 148.836 132.448 157.317 132.448 157.317C132.448 157.317 158.938 155.414 163.343 153.331C167.748 151.248 176.607 141.063 176.607 141.063L174.724 109.291Z" fill="#C12B33"/>
<path d="M202.988 74.1493C202.282 73.4707 201.346 73.0829 200.367 73.063C200.128 73.072 199.893 73.1282 199.675 73.2283C199.458 73.3285 199.263 73.4707 199.101 73.6467C198.939 73.8227 198.813 74.0291 198.731 74.2539C198.649 74.4787 198.612 74.7175 198.623 74.9566C197.794 73.826 196.709 72.9085 195.456 72.2795C194.203 71.6505 192.819 71.3282 191.417 71.3389C188.615 71.3809 185.851 71.9947 183.295 73.1427C180.745 74.2869 178.113 75.2396 175.422 75.993C176.032 80.1213 178.236 83.846 181.561 86.3677C183.132 87.4695 184.8 88.4268 186.544 89.2279L190.162 91.0417C193.859 92.8954 198.922 94.49 202.958 92.4968C206.486 90.7627 207.134 84.5239 206.665 81.1554C206.336 78.4493 205.028 75.9573 202.988 74.1493Z" fill="white"/>
<path d="M198.712 93.9232C195.633 93.7831 192.626 92.952 189.912 91.4915L186.294 89.6777C184.548 88.862 182.88 87.8879 181.311 86.7676C177.882 84.1645 175.607 80.3228 174.973 76.0641C174.957 75.9408 174.987 75.816 175.056 75.7132C175.126 75.6103 175.231 75.5366 175.352 75.506C177.399 74.9748 179.399 74.2747 181.331 73.4131C181.929 73.1639 182.527 72.9148 183.125 72.6856C185.748 71.5212 188.578 70.8943 191.447 70.8419C192.752 70.8409 194.043 71.1055 195.242 71.6195C196.442 72.1335 197.524 72.8861 198.423 73.8317C198.473 73.7306 198.537 73.6367 198.612 73.5526C198.822 73.2698 199.09 73.0348 199.398 72.863C199.705 72.6912 200.045 72.5866 200.396 72.556C201.511 72.5466 202.585 72.9762 203.386 73.7519C205.518 75.6354 206.878 78.241 207.203 81.067C207.741 84.9139 206.864 91.1327 203.217 92.9266C201.814 93.6066 200.271 93.9479 198.712 93.9232ZM175.98 76.373C176.664 80.1996 178.768 83.6269 181.869 85.9703C183.405 87.0513 185.032 87.9951 186.733 88.7907L190.361 90.5945C193.819 92.3286 198.772 93.993 202.708 92.0496C205.868 90.4949 206.625 84.6747 206.137 81.2265C205.841 78.6472 204.606 76.267 202.669 74.5393C202.069 73.9307 201.26 73.5742 200.406 73.5427C200.197 73.5624 199.995 73.6238 199.81 73.723C199.625 73.8223 199.462 73.9575 199.33 74.1207C199.244 74.2196 199.18 74.3355 199.142 74.461C199.105 74.5864 199.094 74.7183 199.111 74.8482C199.13 74.9609 199.11 75.0769 199.054 75.1765C198.998 75.2762 198.909 75.3536 198.803 75.3957C198.697 75.4377 198.579 75.4419 198.47 75.4076C198.361 75.3732 198.267 75.3024 198.204 75.207C197.417 74.1456 196.39 73.2854 195.207 72.6965C194.024 72.1076 192.718 71.8068 191.397 71.8185C188.664 71.873 185.969 72.4763 183.474 73.5925C182.876 73.8217 182.288 74.0709 181.7 74.31C179.844 75.1323 177.933 75.8217 175.98 76.373Z" fill="#231F20"/>
<path d="M186.345 101.707V110.976C187.051 112.469 188.278 113.654 189.795 114.309C191.312 114.964 193.015 115.043 194.587 114.533C200.646 112.989 201.384 108.633 201.384 108.633L201.114 91.4819C201.114 91.4819 196.58 89.1299 197.786 79.3234C192.837 81.5226 187.387 82.3455 182.01 81.7052C182.01 81.7052 179.379 92.3589 180.176 97.0629C180.973 101.767 186.345 101.707 186.345 101.707Z" fill="white"/>
<path d="M192.404 115.321C191.038 115.306 189.703 114.908 188.551 114.174C187.399 113.439 186.476 112.397 185.886 111.165C185.877 111.102 185.877 111.038 185.886 110.975V102.135C184.461 102.006 180.415 101.268 179.717 97.1026C178.92 92.3488 181.461 81.9842 181.571 81.5457C181.599 81.4287 181.67 81.3263 181.769 81.2582C181.869 81.1902 181.99 81.1612 182.109 81.1769C187.387 81.7895 192.733 80.9846 197.596 78.8449C197.674 78.7962 197.764 78.7704 197.855 78.7704C197.947 78.7704 198.037 78.7962 198.114 78.8449C198.187 78.8981 198.244 78.9692 198.281 79.0513C198.318 79.1335 198.332 79.2237 198.324 79.3133C197.178 88.6016 201.313 90.9436 201.383 90.9735C201.463 91.0136 201.53 91.0747 201.578 91.1502C201.625 91.2258 201.651 91.3129 201.652 91.4021L201.921 108.554C201.921 108.843 201.044 113.337 194.746 114.942C193.985 115.17 193.198 115.298 192.404 115.321ZM186.843 110.866C187.162 111.524 189.255 115.37 194.457 114.045C200.108 112.61 200.865 108.713 200.895 108.544L200.616 91.7608C199.619 91.0931 196.44 88.2428 197.197 80.1405C192.509 82.0362 187.429 82.7614 182.398 82.2533C181.93 84.2465 179.986 92.9568 180.664 96.9731C181.371 101.209 186.145 101.209 186.344 101.209C186.412 101.2 186.481 101.209 186.544 101.235C186.607 101.262 186.662 101.304 186.703 101.358C186.793 101.452 186.844 101.577 186.843 101.707V110.866Z" fill="#231F20"/>
<path d="M197.547 91.2224C197.753 90.3797 198.229 89.6274 198.902 89.0797C199.54 88.5981 200.254 88.2274 201.015 87.9834C201.42 87.8065 201.859 87.7247 202.301 87.7442C202.606 87.7865 202.901 87.8881 203.168 88.0432C203.827 88.361 204.352 88.9009 204.653 89.568C204.821 90.1304 204.855 90.7242 204.752 91.3021C204.683 91.9367 204.533 92.5598 204.304 93.1558C204.06 93.7449 203.701 94.2798 203.249 94.7295C202.797 95.1792 202.261 95.5348 201.67 95.7758C201.08 96.0168 200.448 96.1383 199.81 96.1333C199.172 96.1284 198.542 95.9971 197.955 95.747" fill="white"/>
<path d="M199.821 96.6224C199.101 96.6236 198.389 96.4778 197.728 96.1939C197.661 96.1729 197.599 96.138 197.547 96.0916C197.494 96.0452 197.452 95.9882 197.423 95.9244C197.395 95.8607 197.379 95.7915 197.379 95.7215C197.379 95.6515 197.393 95.5822 197.421 95.5181C197.449 95.454 197.491 95.3965 197.543 95.3495C197.594 95.3024 197.656 95.2668 197.722 95.245C197.789 95.2232 197.859 95.2157 197.929 95.2229C197.998 95.2302 198.066 95.252 198.126 95.287C198.652 95.5124 199.217 95.631 199.789 95.6361C200.361 95.6411 200.928 95.5325 201.457 95.3164C201.987 95.1004 202.468 94.7812 202.873 94.3775C203.278 93.9738 203.599 93.4937 203.817 92.9649C204.027 92.4103 204.165 91.8307 204.226 91.2408C204.318 90.7405 204.294 90.2255 204.156 89.7359C203.892 89.1833 203.445 88.7394 202.89 88.4802C202.68 88.3528 202.446 88.2681 202.202 88.231C201.839 88.2326 201.48 88.3072 201.146 88.4503C200.431 88.669 199.757 89.0059 199.153 89.4469C198.574 89.9253 198.168 90.5798 197.997 91.3105C197.982 91.376 197.955 91.4379 197.917 91.4929C197.879 91.5478 197.83 91.5947 197.773 91.6308C197.717 91.6669 197.654 91.6915 197.588 91.7032C197.522 91.715 197.454 91.7136 197.389 91.6992C197.323 91.6848 197.261 91.6577 197.207 91.6193C197.152 91.581 197.105 91.5322 197.069 91.4757C197.033 91.4193 197.008 91.3563 196.996 91.2903C196.984 91.2244 196.986 91.1567 197 91.0913C197.221 90.1453 197.746 89.298 198.495 88.6795C199.175 88.1558 199.94 87.7545 200.757 87.4935C201.231 87.288 201.747 87.1958 202.262 87.2245C202.614 87.2812 202.952 87.4029 203.259 87.5832C204.028 87.95 204.637 88.5841 204.973 89.3672C205.181 90.0105 205.226 90.6955 205.103 91.3604C205.036 92.0437 204.875 92.7145 204.624 93.3536C204.356 94.0029 203.961 94.5927 203.463 95.0887C202.965 95.5848 202.374 95.9773 201.724 96.2437C201.118 96.4839 200.473 96.6122 199.821 96.6224Z" fill="#231F20"/>
<path d="M189.016 87.5951C189.016 87.5951 185.718 92.2692 186.455 93.1163C187.193 93.9634 189.325 93.4651 189.325 93.4651" fill="white"/>
<path d="M188.03 94.1626C187.669 94.1999 187.305 94.1596 186.961 94.0445C186.617 93.9293 186.302 93.7419 186.037 93.4949C185.21 92.4983 186.954 89.638 188.558 87.3558C188.596 87.3019 188.644 87.256 188.7 87.2208C188.755 87.1856 188.817 87.1617 188.882 87.1506C188.947 87.1395 189.013 87.1413 189.078 87.156C189.142 87.1707 189.202 87.198 189.256 87.2362C189.363 87.3141 189.435 87.4305 189.457 87.5608C189.479 87.691 189.45 87.8248 189.375 87.9338C187.851 90.0964 186.645 92.3986 186.804 92.9168C187.193 93.3454 188.558 93.2058 189.166 93.0663C189.298 93.0372 189.437 93.0619 189.551 93.1347C189.665 93.2076 189.745 93.3228 189.774 93.455C189.803 93.5872 189.779 93.7254 189.706 93.8395C189.633 93.9535 189.518 94.0338 189.385 94.0629C188.938 94.1384 188.484 94.1718 188.03 94.1626Z" fill="#231F20"/>
<path d="M192.936 88.4433C193.37 88.4166 193.691 87.9005 193.653 87.2907C193.616 86.681 193.234 86.2083 192.8 86.2351C192.366 86.2619 192.044 86.7779 192.082 87.3877C192.119 87.9975 192.502 88.4701 192.936 88.4433Z" fill="#231F20"/>
<path d="M186.166 87.3905C186.309 86.7967 186.083 86.2324 185.66 86.1302C185.238 86.0279 184.779 86.4264 184.635 87.0202C184.491 87.6141 184.718 88.1783 185.14 88.2806C185.563 88.3828 186.022 87.9843 186.166 87.3905Z" fill="#231F20"/>
<path d="M189.504 98.9244C186.922 98.8806 184.416 98.0419 182.328 96.5226C182.276 96.482 182.233 96.4316 182.201 96.3744C182.169 96.3171 182.148 96.254 182.14 96.1888C182.132 96.1236 182.138 96.0574 182.155 95.9941C182.173 95.9308 182.203 95.8716 182.243 95.82C182.284 95.7683 182.334 95.7251 182.392 95.6928C182.449 95.6606 182.512 95.6399 182.577 95.6321C182.642 95.6242 182.709 95.6293 182.772 95.647C182.835 95.6647 182.894 95.6947 182.946 95.7352C182.946 95.7352 187.989 99.5921 193.64 97.0109C193.699 96.9828 193.763 96.967 193.829 96.9644C193.895 96.9617 193.96 96.9724 194.021 96.9956C194.083 97.0189 194.139 97.0543 194.186 97.0997C194.234 97.1452 194.272 97.1997 194.297 97.26C194.351 97.3803 194.355 97.5171 194.309 97.6404C194.262 97.7637 194.168 97.8634 194.048 97.9178C192.624 98.5771 191.073 98.9205 189.504 98.9244Z" fill="#231F20"/>
<path d="M182.627 92.8168C181.404 92.813 180.21 92.4339 179.209 91.7305C178.251 91.0481 177.516 90.0986 177.095 89.0005C176.674 87.9025 176.587 86.7048 176.843 85.5571C177.099 84.4095 177.688 83.3629 178.536 82.5483C179.384 81.7337 180.454 81.1872 181.611 80.9771C183.167 80.7105 184.765 81.0701 186.057 81.9775C187.349 82.8849 188.23 84.2664 188.507 85.8206C188.777 87.3783 188.419 88.9793 187.511 90.2735C186.603 91.5677 185.22 92.4499 183.664 92.7271C183.321 92.7862 182.975 92.8162 182.627 92.8168ZM182.627 81.8542C182.337 81.8526 182.047 81.8759 181.76 81.9239C180.795 82.0987 179.902 82.5546 179.195 83.2346C178.487 83.9146 177.996 84.7884 177.783 85.7463C177.57 86.7043 177.645 87.7037 177.998 88.6194C178.351 89.535 178.966 90.3261 179.767 90.8934C180.846 91.6458 182.178 91.9412 183.474 91.7153C184.769 91.4894 185.923 90.7605 186.684 89.6875C187.2 88.9426 187.504 88.0709 187.562 87.1663C187.62 86.2616 187.43 85.3582 187.013 84.5534C186.596 83.7486 185.967 83.0729 185.194 82.599C184.421 82.1251 183.534 81.871 182.627 81.8641V81.8542Z" fill="#231F20"/>
<path d="M194.09 92.3699C192.547 92.3791 191.061 91.7919 189.941 90.7309C188.821 89.6699 188.155 88.2173 188.081 86.6765C188.007 85.1357 188.532 83.626 189.545 82.4629C190.558 81.2997 191.982 80.5731 193.518 80.4348C195.054 80.2965 196.585 80.7573 197.789 81.7209C198.994 82.6845 199.779 84.0762 199.982 85.6054C200.184 87.1346 199.788 88.6829 198.876 89.9268C197.963 91.1706 196.606 92.0138 195.086 92.2802C194.757 92.3379 194.424 92.3679 194.09 92.3699ZM194.09 81.4072C193.799 81.4061 193.509 81.4294 193.223 81.477C192.008 81.7891 190.955 82.5479 190.276 83.6019C189.596 84.6559 189.338 85.9275 189.555 87.1629C189.771 88.3984 190.445 89.5068 191.443 90.2669C192.441 91.027 193.688 91.3829 194.937 91.2636C196.231 91.0325 197.381 90.2995 198.137 89.2244C198.893 88.1492 199.193 86.8189 198.973 85.5232C198.768 84.3757 198.167 83.3364 197.275 82.5862C196.382 81.836 195.255 81.4223 194.09 81.4172V81.4072Z" fill="#231F20"/>
<path d="M186.346 101.706C186.346 101.706 192.116 103.042 195.514 101.098C195.514 101.098 191.757 108.872 186.346 108.075V101.706Z" fill="#231F20"/>
<path d="M187.153 108.613C186.86 108.612 186.567 108.592 186.276 108.553C186.157 108.534 186.049 108.474 185.971 108.382C185.892 108.291 185.849 108.175 185.848 108.055V101.706C185.847 101.631 185.864 101.557 185.897 101.49C185.93 101.423 185.978 101.364 186.037 101.318C186.098 101.272 186.167 101.24 186.241 101.223C186.315 101.206 186.391 101.204 186.466 101.218C186.466 101.218 192.076 102.484 195.266 100.67C195.358 100.617 195.465 100.595 195.57 100.607C195.676 100.619 195.775 100.664 195.853 100.737C195.931 100.809 195.984 100.905 196.004 101.009C196.023 101.114 196.009 101.222 195.963 101.318C195.804 101.627 192.365 108.613 187.153 108.613ZM186.844 107.616C190.332 107.816 193.103 104.158 194.349 102.155C191.891 102.769 189.327 102.827 186.844 102.324V107.616Z" fill="#231F20"/>
<path d="M187.123 181.644C187.123 181.644 189.246 187.694 194.588 188.182C199.929 188.67 219.194 187.714 225.482 169.486C232.907 147.849 235.199 116.815 232.279 114.144C229.359 111.473 227.585 114.384 227.585 121.121C227.585 126.233 224.017 152.394 221.765 163.606C218.436 179.96 194.418 183.368 187.123 181.644Z" fill="white"/>
<path d="M196.989 188.741C196.112 188.741 195.295 188.741 194.537 188.632C188.976 188.123 186.784 182.054 186.694 181.805C186.665 181.728 186.659 181.644 186.674 181.563C186.69 181.482 186.728 181.407 186.784 181.346C186.836 181.284 186.905 181.238 186.983 181.213C187.06 181.188 187.143 181.186 187.222 181.207C192.205 182.383 203.985 181.127 212.297 175.785C217.28 172.606 220.27 168.47 221.266 163.487C223.498 152.405 227.086 126.254 227.086 121.092C227.086 117.823 227.505 113.747 229.498 112.87C230.405 112.471 231.422 112.79 232.488 113.807C235.707 116.796 233.255 147.95 225.821 169.616C220.648 184.854 205.879 188.741 196.989 188.741ZM187.88 182.263C188.637 183.848 190.76 187.376 194.627 187.725C194.856 187.725 218.067 189.618 225.023 169.337C232.478 147.631 234.571 116.886 231.94 114.474C231.123 113.727 230.425 113.478 229.887 113.697C228.711 114.215 228.013 116.976 228.013 121.092C228.013 126.284 224.415 152.555 222.183 163.667C221.127 168.899 217.967 173.234 212.785 176.553C204.713 181.735 193.401 183.16 187.88 182.263Z" fill="#231F20"/>
<path d="M217.747 107.249C222.451 108.086 241.546 152.216 235.009 157.258C224.813 165.122 189.324 157.169 189.324 157.169L192.214 143.485C192.214 143.485 215.037 144.113 215.356 139.429C215.674 134.745 202.091 113.099 203.885 109.82C205.678 106.541 217.747 107.249 217.747 107.249Z" fill="#C12B33"/>
<path d="M154.643 195.228C154.545 195.226 154.449 195.196 154.368 195.141C154.287 195.086 154.223 195.009 154.184 194.919C149.391 183.398 155.181 166.436 155.43 165.718C155.447 165.651 155.478 165.589 155.521 165.534C155.564 165.48 155.617 165.435 155.678 165.403C155.739 165.37 155.806 165.351 155.875 165.345C155.944 165.34 156.013 165.349 156.078 165.372C156.143 165.395 156.203 165.431 156.253 165.478C156.304 165.525 156.344 165.582 156.371 165.646C156.398 165.709 156.412 165.778 156.411 165.847C156.411 165.916 156.395 165.984 156.367 166.047C156.307 166.217 150.457 183.368 155.101 194.54C155.127 194.6 155.141 194.665 155.141 194.73C155.142 194.796 155.129 194.861 155.104 194.921C155.079 194.981 155.042 195.036 154.995 195.082C154.949 195.128 154.893 195.164 154.832 195.188C154.772 195.212 154.708 195.225 154.643 195.228Z" fill="white"/>
<path d="M206.596 161.773H206.506L195.424 159.869C195.311 159.848 195.209 159.79 195.134 159.703C195.06 159.615 195.018 159.505 195.015 159.391L194.656 146.116C194.653 145.99 194.698 145.868 194.781 145.774C194.864 145.68 194.98 145.62 195.105 145.608L215.037 143.555L206.267 113.308C206.249 113.242 206.243 113.174 206.251 113.106C206.259 113.039 206.281 112.974 206.314 112.915C206.347 112.855 206.392 112.803 206.446 112.761C206.499 112.719 206.56 112.688 206.626 112.67C206.691 112.652 206.759 112.646 206.827 112.654C206.894 112.663 206.96 112.684 207.019 112.717C207.078 112.751 207.13 112.795 207.172 112.849C207.214 112.902 207.245 112.963 207.263 113.029L216.233 143.844C216.252 143.914 216.256 143.988 216.244 144.061C216.232 144.133 216.204 144.202 216.163 144.262C216.124 144.324 216.071 144.375 216.009 144.413C215.947 144.451 215.877 144.475 215.804 144.482L195.713 146.554L196.052 158.952L206.725 160.786C206.855 160.81 206.97 160.884 207.047 160.992C207.123 161.1 207.154 161.233 207.134 161.364C207.114 161.488 207.047 161.6 206.947 161.676C206.847 161.753 206.721 161.787 206.596 161.773Z" fill="#231F20"/>
<path d="M194.667 148.07C190.878 148.301 187.075 148.118 183.325 147.522C180.551 146.839 177.702 146.504 174.844 146.525C171.072 146.703 167.361 147.547 163.882 149.016C163.741 149.069 163.614 149.154 163.513 149.266C163.184 149.734 163.981 150.192 164.51 150.202C166.014 150.242 167.516 150.054 168.964 149.644C165.375 150.973 161.979 152.776 158.869 155.006C158.52 155.255 158.131 155.664 158.301 156.062C158.47 156.461 159.198 156.391 159.666 156.182L167.818 152.445C165.706 153.287 163.749 154.476 162.028 155.963C161.779 156.182 161.52 156.471 161.59 156.79C161.709 157.338 162.516 157.228 163.025 156.979C165.507 155.745 167.878 154.297 170.11 152.654L165.068 156.511C165.008 156.92 165.446 157.268 165.855 157.288C166.274 157.262 166.677 157.12 167.021 156.88L172.632 153.631L169.134 156.092C168.586 156.471 167.958 157.089 168.227 157.707C168.496 158.325 169.622 158.215 170.34 157.886C173.235 156.633 176.259 155.703 179.359 155.116C180.44 154.754 181.561 154.527 182.698 154.438C184.435 154.654 186.15 155.028 187.82 155.554C190.361 156.122 192.893 156.71 195.434 157.298" fill="white"/>
<path d="M169.182 158.672C168.971 158.676 168.761 158.638 168.564 158.563C168.414 158.506 168.276 158.419 168.16 158.308C168.043 158.196 167.951 158.063 167.887 157.915C167.768 157.614 167.768 157.279 167.887 156.978L167.348 157.287C166.935 157.575 166.447 157.738 165.943 157.756C165.753 157.752 165.566 157.709 165.395 157.628C165.223 157.547 165.07 157.431 164.947 157.287C164.802 157.118 164.712 156.91 164.687 156.689C164.229 156.938 163.771 157.178 163.302 157.407C163.062 157.538 162.797 157.617 162.524 157.641C162.252 157.666 161.977 157.633 161.718 157.546C161.59 157.484 161.479 157.393 161.392 157.281C161.306 157.169 161.247 157.038 161.219 156.899C161.197 156.715 161.219 156.529 161.283 156.356C161.348 156.183 161.452 156.027 161.588 155.902L159.934 156.659C159.492 156.89 158.98 156.947 158.499 156.819C158.261 156.725 158.068 156.543 157.96 156.311C157.731 155.782 157.96 155.204 158.688 154.706C160.816 153.172 163.081 151.838 165.455 150.72H164.568C164.278 150.716 163.994 150.643 163.739 150.506C163.483 150.369 163.265 150.172 163.103 149.932C163.033 149.796 163.002 149.642 163.015 149.489C163.027 149.336 163.082 149.189 163.173 149.065C163.317 148.88 163.511 148.739 163.731 148.657C167.249 147.163 171.005 146.306 174.823 146.125C177.361 146.068 179.896 146.333 182.367 146.913L183.364 147.112C187.084 147.696 190.856 147.876 194.615 147.65C194.735 147.65 194.849 147.695 194.937 147.777C195.024 147.858 195.076 147.97 195.084 148.089C195.087 148.149 195.077 148.209 195.057 148.266C195.036 148.322 195.005 148.374 194.964 148.419C194.923 148.463 194.874 148.499 194.819 148.525C194.765 148.55 194.706 148.564 194.645 148.567C190.819 148.787 186.98 148.597 183.194 147.999L182.198 147.81C179.795 147.245 177.331 146.984 174.863 147.032C171.154 147.21 167.507 148.044 164.089 149.494C164.029 149.519 163.971 149.552 163.92 149.593C164.127 149.715 164.359 149.79 164.598 149.813C166.059 149.85 167.517 149.665 168.923 149.265C169.035 149.233 169.156 149.245 169.259 149.298C169.363 149.352 169.442 149.443 169.481 149.554C169.514 149.667 169.504 149.79 169.453 149.896C169.401 150.003 169.312 150.087 169.202 150.132C165.658 151.446 162.306 153.229 159.236 155.434C158.887 155.683 158.797 155.882 158.817 155.932C159.071 155.995 159.34 155.955 159.565 155.822L165.883 152.932C166.491 152.623 167.109 152.334 167.757 152.075C167.864 152.048 167.976 152.06 168.074 152.11C168.173 152.159 168.25 152.242 168.292 152.343C168.335 152.445 168.339 152.558 168.305 152.662C168.271 152.767 168.2 152.855 168.106 152.912L166.282 153.749C164.898 154.468 163.603 155.348 162.425 156.37C162.106 156.639 162.126 156.749 162.126 156.749C162.397 156.815 162.684 156.772 162.923 156.629C165.369 155.406 167.703 153.972 169.9 152.344C169.997 152.287 170.111 152.268 170.222 152.29C170.332 152.312 170.43 152.374 170.498 152.463C170.566 152.553 170.598 152.665 170.589 152.777C170.58 152.889 170.529 152.994 170.448 153.072L165.634 156.759C165.715 156.837 165.821 156.883 165.933 156.889C166.267 156.866 166.586 156.744 166.85 156.54L172.471 153.301C172.52 153.27 172.576 153.25 172.633 153.241C172.691 153.232 172.75 153.234 172.806 153.248C172.863 153.262 172.916 153.287 172.963 153.322C173.01 153.356 173.049 153.4 173.079 153.45C173.142 153.549 173.164 153.668 173.142 153.783C173.12 153.898 173.054 154 172.959 154.068L169.451 156.52C169.003 156.839 168.564 157.287 168.704 157.586C168.716 157.626 168.738 157.662 168.768 157.692C168.797 157.721 168.833 157.743 168.873 157.756C169.335 157.834 169.809 157.753 170.219 157.526C173.142 156.258 176.197 155.319 179.328 154.726C179.686 154.646 180.045 154.547 180.404 154.447C181.168 154.187 181.969 154.049 182.776 154.038C184.016 154.138 185.24 154.382 186.423 154.766C186.952 154.905 187.48 155.055 187.978 155.164C190.519 155.742 193.061 156.321 195.592 156.918C195.651 156.931 195.706 156.956 195.755 156.991C195.804 157.025 195.846 157.07 195.878 157.121C195.909 157.172 195.93 157.229 195.939 157.288C195.949 157.348 195.946 157.408 195.931 157.467C195.9 157.582 195.826 157.682 195.724 157.745C195.622 157.808 195.5 157.83 195.383 157.805C192.851 157.207 190.31 156.629 187.779 156.051C187.26 155.942 186.722 155.792 186.184 155.643C185.068 155.283 183.914 155.052 182.746 154.955C182.034 154.972 181.328 155.096 180.653 155.324C180.274 155.434 179.896 155.533 179.507 155.613C176.44 156.194 173.449 157.117 170.587 158.364C170.143 158.556 169.666 158.661 169.182 158.672Z" fill="#231F20"/>
<path d="M179.518 114.82C179.518 114.82 175.342 131.862 171.545 143.971L179.518 114.82Z" fill="white"/>
<path d="M171.585 144.432H171.446C171.388 144.415 171.335 144.386 171.289 144.348C171.243 144.31 171.204 144.264 171.177 144.211C171.149 144.158 171.132 144.1 171.127 144.04C171.122 143.981 171.128 143.921 171.147 143.864C174.864 131.904 179.03 114.902 179.12 114.733C179.134 114.675 179.16 114.621 179.195 114.573C179.23 114.526 179.275 114.485 179.326 114.455C179.377 114.424 179.433 114.404 179.492 114.395C179.55 114.387 179.61 114.39 179.668 114.404C179.725 114.418 179.78 114.444 179.827 114.479C179.875 114.515 179.915 114.559 179.946 114.61C179.976 114.661 179.996 114.717 180.005 114.776C180.014 114.835 180.011 114.895 179.997 114.952C179.997 115.122 175.781 132.144 172.024 144.133C171.991 144.222 171.931 144.299 171.852 144.352C171.774 144.406 171.68 144.433 171.585 144.432Z" fill="#231F20"/>
<path d="M168.645 160.876H131.771C131.421 160.306 131.295 159.627 131.416 158.97C131.538 158.313 131.898 157.724 132.429 157.318H167.898L168.645 160.876Z" fill="white"/>
<path d="M168.645 161.324H131.77C131.692 161.325 131.614 161.306 131.546 161.267C131.478 161.229 131.421 161.172 131.382 161.105C130.96 160.445 130.803 159.651 130.942 158.88C131.08 158.11 131.504 157.42 132.129 156.949C132.21 156.89 132.308 156.858 132.408 156.859H167.877C167.982 156.857 168.084 156.892 168.166 156.957C168.248 157.023 168.305 157.115 168.326 157.218L169.043 160.766C169.059 160.831 169.059 160.9 169.044 160.966C169.028 161.032 168.997 161.093 168.954 161.144C168.917 161.193 168.87 161.235 168.817 161.265C168.764 161.296 168.705 161.316 168.645 161.324ZM132.069 160.417H168.086L167.548 157.776H132.607C132.233 158.091 131.977 158.524 131.879 159.003C131.782 159.482 131.849 159.98 132.069 160.417Z" fill="#231F20"/>
<path d="M181.641 159.599C181.641 159.599 168.845 156.45 167.838 157.457C166.831 158.463 167.17 160.736 168.645 160.875C170.12 161.015 170.449 159.061 170.449 159.061L181.641 161.274V159.599Z" fill="white"/>
<path d="M181.641 161.723H181.551L170.788 159.59C170.685 160.089 170.41 160.536 170.011 160.853C169.612 161.17 169.114 161.337 168.605 161.324C168.232 161.276 167.882 161.119 167.598 160.873C167.314 160.626 167.11 160.301 167.01 159.939C166.829 159.46 166.783 158.941 166.878 158.438C166.973 157.935 167.205 157.468 167.549 157.088C168.545 156.092 176.907 157.916 181.78 159.082C181.878 159.108 181.965 159.167 182.026 159.248C182.088 159.329 182.12 159.428 182.119 159.53V161.204C182.118 161.27 182.103 161.335 182.076 161.396C182.048 161.456 182.009 161.509 181.959 161.553C181.921 161.602 181.872 161.642 181.817 161.671C181.763 161.7 181.702 161.717 181.641 161.723ZM170.449 158.613H170.538L181.182 160.716V159.939C175.302 158.504 168.904 157.318 168.137 157.776C167.933 158.038 167.799 158.347 167.745 158.674C167.691 159.001 167.719 159.336 167.828 159.65C167.885 159.842 167.997 160.015 168.148 160.147C168.3 160.28 168.486 160.366 168.685 160.397C169.681 160.497 170 158.982 170 158.962C170.011 158.904 170.033 158.848 170.065 158.798C170.098 158.748 170.14 158.706 170.19 158.673C170.267 158.625 170.358 158.604 170.449 158.613Z" fill="#231F20"/>
<path d="M87.2037 240.853H79.5L89.1671 165.978H102.96L87.2037 240.853Z" fill="white"/>
<path d="M87.2027 241.311H79.4989C79.4327 241.311 79.3672 241.297 79.307 241.269C79.2468 241.242 79.1933 241.202 79.1501 241.151C79.07 241.05 79.0309 240.922 79.0405 240.793L88.7175 165.918C88.7298 165.808 88.7824 165.706 88.8652 165.632C88.948 165.559 89.0552 165.519 89.166 165.519H102.959C103.026 165.518 103.093 165.533 103.154 165.562C103.214 165.592 103.267 165.635 103.308 165.689C103.352 165.74 103.384 165.801 103.401 165.867C103.418 165.932 103.421 166.001 103.407 166.067L87.6511 240.942C87.6287 241.045 87.5723 241.138 87.4909 241.204C87.4095 241.271 87.308 241.309 87.2027 241.311ZM80.0072 240.394H86.8339L102.401 166.436H89.5646L80.0072 240.394Z" fill="#231F20"/>
<path d="M244.916 240.853H252.63L242.953 165.978H229.16L244.916 240.853Z" fill="white"/>
<path d="M252.628 241.311H244.914C244.81 241.31 244.709 241.273 244.629 241.206C244.548 241.138 244.494 241.045 244.476 240.942L228.71 166.067C228.699 166.001 228.702 165.933 228.719 165.867C228.736 165.802 228.767 165.741 228.809 165.689C228.85 165.635 228.903 165.592 228.963 165.562C229.024 165.533 229.091 165.518 229.158 165.519H242.951C243.062 165.519 243.169 165.559 243.252 165.632C243.335 165.706 243.387 165.808 243.4 165.918L253.077 240.793C253.086 240.857 253.081 240.922 253.062 240.984C253.043 241.046 253.011 241.104 252.967 241.151C252.925 241.2 252.873 241.24 252.814 241.267C252.756 241.295 252.693 241.31 252.628 241.311ZM245.283 240.394H252.11L242.552 166.436H229.716L245.283 240.394Z" fill="#231F20"/>
<path d="M243.11 199.203H211.598V204.863H243.11V199.203Z" fill="white"/>
<path d="M243.122 205.323H211.599C211.478 205.321 211.363 205.272 211.278 205.186C211.192 205.101 211.143 204.986 211.141 204.865V199.204C211.143 199.083 211.192 198.968 211.278 198.883C211.363 198.797 211.478 198.748 211.599 198.746H243.122C243.241 198.748 243.356 198.798 243.439 198.883C243.523 198.969 243.57 199.084 243.57 199.204V204.865C243.57 204.985 243.523 205.1 243.439 205.185C243.356 205.271 243.241 205.321 243.122 205.323ZM212.057 204.406H242.663V199.662H212.057V204.406Z" fill="#231F20"/>
<path d="M215.625 240.853H223.329L213.662 165.978H199.869L215.625 240.853Z" fill="white"/>
<path d="M223.329 241.311H215.625C215.519 241.311 215.417 241.274 215.335 241.207C215.253 241.139 215.197 241.046 215.177 240.942L199.42 166.067C199.408 166.001 199.41 165.934 199.425 165.868C199.44 165.803 199.469 165.742 199.51 165.689C199.553 165.635 199.608 165.592 199.67 165.563C199.732 165.534 199.8 165.519 199.869 165.519H213.662C213.773 165.518 213.88 165.559 213.963 165.632C214.045 165.706 214.098 165.808 214.11 165.918L223.817 240.793C223.827 240.922 223.788 241.05 223.708 241.151C223.661 241.206 223.603 241.248 223.537 241.276C223.471 241.304 223.4 241.316 223.329 241.311ZM215.994 240.394H222.821L213.273 166.436H200.427L215.994 240.394Z" fill="#231F20"/>
<path d="M59.7179 204.864H91.2305V199.204H59.7179V204.864Z" fill="white"/>
<path d="M91.2687 205.323H59.7063C59.5864 205.321 59.4724 205.271 59.3885 205.185C59.3047 205.1 59.2578 204.985 59.2578 204.865V199.204C59.2578 199.084 59.3047 198.969 59.3885 198.883C59.4724 198.798 59.5864 198.748 59.7063 198.746H91.2687C91.3886 198.748 91.5026 198.798 91.5865 198.883C91.6703 198.969 91.7172 199.084 91.7172 199.204V204.865C91.7172 204.985 91.6703 205.1 91.5865 205.185C91.5026 205.271 91.3886 205.321 91.2687 205.323ZM60.2046 204.406H90.7704V199.662H60.1647L60.2046 204.406Z" fill="#231F20"/>
<path d="M57.9129 240.853H50.1992L59.8762 165.978H73.6692L57.9129 240.853Z" fill="white"/>
<path d="M57.9129 241.311H50.1992C50.1347 241.31 50.0711 241.295 50.0128 241.267C49.9544 241.24 49.9024 241.2 49.8604 241.151C49.8167 241.104 49.7842 241.046 49.7652 240.984C49.7463 240.922 49.7413 240.857 49.7507 240.793L59.3779 165.918C59.3925 165.807 59.4472 165.705 59.5316 165.632C59.6161 165.558 59.7245 165.518 59.8364 165.519H73.6294C73.6967 165.518 73.7634 165.533 73.824 165.562C73.8846 165.592 73.9374 165.635 73.9782 165.689C74.0206 165.741 74.0513 165.802 74.0685 165.867C74.0857 165.933 74.0889 166.001 74.0778 166.067L58.3813 240.942C58.362 241.05 58.3036 241.148 58.2172 241.216C58.1309 241.284 58.0226 241.318 57.9129 241.311ZM50.7174 240.394H57.5442L73.1111 166.436H60.2749L50.7174 240.394Z" fill="#231F20"/>
<path d="M58.4404 147.749H144.059V85.0724H58.4404L58.4404 147.749Z" fill="white"/>
<path d="M144.089 148.2H58.431C58.3713 148.2 58.3121 148.188 58.257 148.164C58.202 148.141 58.1521 148.107 58.1103 148.065C58.0685 148.022 58.0357 147.971 58.0138 147.916C57.9918 147.86 57.9812 147.801 57.9825 147.741V85.0647C57.9825 84.9457 58.0298 84.8317 58.1139 84.7476C58.198 84.6635 58.3121 84.6162 58.431 84.6162H144.089C144.209 84.6162 144.324 84.6631 144.41 84.7469C144.495 84.8308 144.545 84.9448 144.548 85.0647V147.741C144.548 147.863 144.499 147.979 144.413 148.065C144.327 148.151 144.211 148.2 144.089 148.2ZM58.9193 147.293H143.631V85.5032H58.9193V147.293Z" fill="#231F20"/>
<path d="M109.807 121.49V147.74H96.1133L109.807 121.49Z" fill="#231F20"/>
<path d="M109.806 148.197H96.1128C96.0343 148.198 95.9569 148.179 95.8885 148.14C95.8201 148.102 95.7634 148.046 95.7241 147.978C95.6848 147.909 95.6641 147.832 95.6641 147.753C95.6641 147.675 95.6848 147.597 95.7241 147.529L109.408 121.269C109.457 121.181 109.534 121.112 109.627 121.073C109.719 121.034 109.822 121.026 109.92 121.051C110.017 121.076 110.104 121.132 110.166 121.211C110.228 121.29 110.263 121.387 110.265 121.488V147.738C110.266 147.799 110.255 147.859 110.232 147.915C110.21 147.972 110.176 148.023 110.133 148.066C110.091 148.108 110.039 148.142 109.983 148.165C109.927 148.187 109.867 148.198 109.806 148.197ZM96.8503 147.29H109.348V123.371L96.8503 147.29Z" fill="#231F20"/>
<path d="M92.1171 121.49H109.807L100.11 159.162H117.899C118.179 159.162 118.448 159.273 118.646 159.471C118.844 159.669 118.956 159.938 118.956 160.218C118.956 160.498 118.844 160.767 118.646 160.965C118.448 161.163 118.179 161.274 117.899 161.274H83.8154C83.4427 161.274 83.0853 161.126 82.8217 160.863C82.5582 160.599 82.4102 160.242 82.4102 159.869V159.162L92.1171 121.49Z" fill="white"/>
<path d="M117.898 161.724H83.8145C83.322 161.724 82.8494 161.529 82.5002 161.182C82.151 160.835 81.9535 160.363 81.9509 159.871V159.163C81.9461 159.123 81.9461 159.083 81.9509 159.043L91.6578 121.372C91.6823 121.274 91.7389 121.188 91.8184 121.127C91.898 121.065 91.9958 121.032 92.0963 121.033H109.806C109.876 121.031 109.945 121.047 110.008 121.078C110.07 121.109 110.124 121.155 110.165 121.212C110.209 121.266 110.24 121.329 110.255 121.396C110.271 121.464 110.27 121.534 110.254 121.601L100.697 158.705H117.898C118.115 158.669 118.337 158.681 118.549 158.74C118.76 158.799 118.957 158.903 119.124 159.045C119.291 159.187 119.426 159.364 119.518 159.563C119.61 159.763 119.658 159.98 119.658 160.2C119.658 160.419 119.61 160.636 119.518 160.836C119.426 161.035 119.291 161.212 119.124 161.354C118.957 161.496 118.76 161.6 118.549 161.659C118.337 161.718 118.115 161.73 117.898 161.694V161.724ZM82.8677 159.223V159.871C82.8805 160.126 82.9912 160.367 83.1767 160.543C83.3622 160.72 83.6084 160.818 83.8643 160.817H117.948C118.107 160.817 118.259 160.754 118.371 160.642C118.483 160.53 118.546 160.378 118.546 160.219C118.546 160.061 118.483 159.909 118.371 159.797C118.259 159.685 118.107 159.621 117.948 159.621H100.109C100.039 159.621 99.9707 159.605 99.9084 159.574C99.8461 159.543 99.792 159.498 99.7502 159.442C99.7067 159.386 99.6762 159.322 99.6607 159.253C99.6452 159.184 99.6451 159.112 99.6605 159.043L109.208 121.94H92.465L82.8677 159.223Z" fill="#231F20"/>
<path d="M138.039 143.973H138.049C138.368 143.973 138.627 143.715 138.627 143.395V140.894C138.627 140.575 138.368 140.316 138.049 140.316H138.039C137.72 140.316 137.461 140.575 137.461 140.894V143.395C137.461 143.715 137.72 143.973 138.039 143.973Z" fill="#231F20"/>
<path d="M138.049 144.43C137.785 144.43 137.532 144.325 137.345 144.138C137.158 143.951 137.053 143.697 137.053 143.433V140.942C137.053 140.667 137.162 140.403 137.356 140.209C137.551 140.014 137.814 139.905 138.089 139.905C138.364 139.905 138.628 140.014 138.822 140.209C139.016 140.403 139.126 140.667 139.126 140.942V143.433C139.126 143.571 139.098 143.707 139.043 143.834C138.988 143.96 138.907 144.074 138.806 144.168C138.705 144.261 138.586 144.333 138.455 144.378C138.325 144.423 138.187 144.441 138.049 144.43ZM138.049 140.772C138.015 140.772 137.982 140.786 137.958 140.81C137.933 140.834 137.92 140.867 137.92 140.902V143.393C137.92 143.533 138.179 143.533 138.179 143.393V140.902C138.179 140.867 138.165 140.834 138.141 140.81C138.117 140.786 138.084 140.772 138.049 140.772Z" fill="#231F20"/>
<path d="M135.01 143.973H135.02C135.339 143.973 135.598 143.715 135.598 143.395V140.894C135.598 140.575 135.339 140.316 135.02 140.316H135.01C134.69 140.316 134.432 140.575 134.432 140.894V143.395C134.432 143.715 134.69 143.973 135.01 143.973Z" fill="#231F20"/>
<path d="M135.008 144.43C134.744 144.43 134.491 144.325 134.304 144.138C134.117 143.951 134.012 143.697 134.012 143.433V140.942C134.012 140.667 134.121 140.403 134.315 140.209C134.51 140.014 134.773 139.905 135.048 139.905C135.323 139.905 135.587 140.014 135.781 140.209C135.975 140.403 136.085 140.667 136.085 140.942V143.433C136.085 143.571 136.057 143.707 136.002 143.834C135.947 143.96 135.866 144.074 135.765 144.168C135.664 144.261 135.544 144.333 135.414 144.378C135.284 144.423 135.146 144.441 135.008 144.43ZM135.008 140.772C134.974 140.772 134.941 140.786 134.917 140.81C134.892 140.834 134.879 140.867 134.879 140.902V143.393C134.879 143.533 135.138 143.533 135.138 143.393V140.902C135.138 140.867 135.124 140.834 135.1 140.81C135.076 140.786 135.043 140.772 135.008 140.772Z" fill="#231F20"/>
<path d="M131.961 143.973H131.971C132.29 143.973 132.549 143.715 132.549 143.395V140.894C132.549 140.575 132.29 140.316 131.971 140.316H131.961C131.642 140.316 131.383 140.575 131.383 140.894V143.395C131.383 143.715 131.642 143.973 131.961 143.973Z" fill="#231F20"/>
<path d="M131.959 144.431C131.695 144.431 131.442 144.326 131.255 144.139C131.068 143.952 130.963 143.699 130.963 143.435V140.943C130.963 140.667 131.073 140.402 131.268 140.207C131.463 140.011 131.728 139.902 132.004 139.902C132.281 139.902 132.545 140.011 132.741 140.207C132.936 140.402 133.046 140.667 133.046 140.943V143.435C133.046 143.573 133.018 143.711 132.962 143.838C132.907 143.965 132.825 144.079 132.723 144.173C132.621 144.267 132.5 144.338 132.368 144.383C132.237 144.427 132.098 144.444 131.959 144.431ZM131.959 140.774C131.943 140.774 131.927 140.777 131.911 140.784C131.896 140.79 131.882 140.8 131.871 140.812C131.86 140.824 131.851 140.839 131.846 140.854C131.841 140.87 131.839 140.887 131.84 140.903V143.395C131.84 143.534 132.089 143.534 132.089 143.395V140.903C132.089 140.869 132.075 140.836 132.051 140.812C132.027 140.787 131.994 140.774 131.959 140.774Z" fill="#231F20"/>
<path d="M128.912 143.973H128.922C129.241 143.973 129.5 143.715 129.5 143.395V140.894C129.5 140.575 129.241 140.316 128.922 140.316H128.912C128.593 140.316 128.334 140.575 128.334 140.894V143.395C128.334 143.715 128.593 143.973 128.912 143.973Z" fill="#231F20"/>
<path d="M128.922 144.43C128.658 144.43 128.405 144.325 128.218 144.138C128.031 143.951 127.926 143.697 127.926 143.433V140.942C127.926 140.667 128.035 140.403 128.229 140.209C128.424 140.014 128.687 139.905 128.962 139.905C129.237 139.905 129.501 140.014 129.695 140.209C129.89 140.403 129.999 140.667 129.999 140.942V143.433C129.999 143.571 129.971 143.707 129.916 143.834C129.861 143.96 129.78 144.074 129.679 144.168C129.578 144.261 129.459 144.333 129.328 144.378C129.198 144.423 129.06 144.441 128.922 144.43ZM128.922 140.772C128.906 140.772 128.889 140.776 128.874 140.782C128.859 140.789 128.845 140.798 128.834 140.811C128.823 140.823 128.814 140.837 128.809 140.853C128.803 140.869 128.801 140.885 128.803 140.902V143.393C128.803 143.533 129.052 143.533 129.052 143.393V140.902C129.052 140.867 129.038 140.834 129.014 140.81C128.99 140.786 128.957 140.772 128.922 140.772Z" fill="#231F20"/>
<path d="M125.871 143.973H125.881C126.2 143.973 126.459 143.715 126.459 143.395V140.894C126.459 140.575 126.2 140.316 125.881 140.316H125.871C125.552 140.316 125.293 140.575 125.293 140.894V143.395C125.293 143.715 125.552 143.973 125.871 143.973Z" fill="#231F20"/>
<path d="M125.879 144.43C125.615 144.43 125.362 144.325 125.175 144.138C124.988 143.951 124.883 143.697 124.883 143.433V140.942C124.883 140.667 124.992 140.403 125.186 140.209C125.381 140.014 125.644 139.905 125.919 139.905C126.194 139.905 126.458 140.014 126.652 140.209C126.847 140.403 126.956 140.667 126.956 140.942V143.433C126.956 143.571 126.928 143.707 126.873 143.834C126.818 143.96 126.737 144.074 126.636 144.168C126.535 144.261 126.416 144.333 126.285 144.378C126.155 144.423 126.017 144.441 125.879 144.43ZM125.879 140.772C125.845 140.772 125.812 140.786 125.788 140.81C125.764 140.834 125.75 140.867 125.75 140.902V143.393C125.75 143.533 126.009 143.533 126.009 143.393V140.902C126.009 140.867 125.995 140.834 125.971 140.81C125.947 140.786 125.914 140.772 125.879 140.772Z" fill="#231F20"/>
<path d="M122.832 143.973H122.842C123.161 143.973 123.42 143.715 123.42 143.395V140.894C123.42 140.575 123.161 140.316 122.842 140.316H122.832C122.513 140.316 122.254 140.575 122.254 140.894V143.395C122.254 143.715 122.513 143.973 122.832 143.973Z" fill="#231F20"/>
<path d="M122.842 144.43C122.578 144.43 122.325 144.325 122.138 144.138C121.951 143.951 121.846 143.697 121.846 143.433V140.942C121.846 140.667 121.955 140.403 122.149 140.209C122.344 140.014 122.607 139.905 122.882 139.905C123.157 139.905 123.421 140.014 123.615 140.209C123.809 140.403 123.919 140.667 123.919 140.942V143.433C123.919 143.571 123.891 143.707 123.836 143.834C123.781 143.96 123.7 144.074 123.599 144.168C123.498 144.261 123.378 144.333 123.248 144.378C123.118 144.423 122.98 144.441 122.842 144.43ZM122.842 140.772C122.808 140.772 122.775 140.786 122.751 140.81C122.726 140.834 122.713 140.867 122.713 140.902V143.393C122.713 143.533 122.962 143.533 122.962 143.393V140.902C122.963 140.885 122.961 140.869 122.956 140.853C122.95 140.837 122.942 140.823 122.931 140.811C122.919 140.798 122.906 140.789 122.89 140.782C122.875 140.776 122.859 140.772 122.842 140.772Z" fill="#231F20"/>
<path d="M257.233 161.274H48.793V168.968H257.233V161.274Z" fill="white"/>
<path d="M257.222 169.426H48.7925C48.6709 169.426 48.5543 169.378 48.4684 169.292C48.3824 169.206 48.3341 169.089 48.3341 168.968V161.274C48.3327 161.213 48.3437 161.153 48.3662 161.097C48.3888 161.041 48.4225 160.989 48.4653 160.947C48.5082 160.904 48.5593 160.87 48.6155 160.847C48.6717 160.825 48.732 160.814 48.7925 160.815H257.222C257.283 160.814 257.343 160.825 257.399 160.847C257.456 160.87 257.507 160.904 257.549 160.947C257.592 160.989 257.626 161.041 257.649 161.097C257.671 161.153 257.682 161.213 257.681 161.274V168.968C257.681 169.089 257.632 169.206 257.546 169.292C257.46 169.378 257.344 169.426 257.222 169.426ZM49.241 168.509H256.774V161.722H49.241V168.509Z" fill="#231F20"/>
<path d="M94.2399 72.0089C104.208 72.0089 112.288 63.9283 112.288 53.9604C112.288 43.9925 104.208 35.9119 94.2399 35.9119C84.272 35.9119 76.1914 43.9925 76.1914 53.9604C76.1914 63.9283 84.272 72.0089 94.2399 72.0089Z" fill="white"/>
<path d="M94.2577 72.5069C90.5895 72.5069 87.0037 71.4191 83.9537 69.3812C80.9037 67.3432 78.5265 64.4466 77.1227 61.0576C75.719 57.6686 75.3517 53.9395 76.0673 50.3418C76.783 46.744 78.5494 43.4393 81.1432 40.8455C83.737 38.2517 87.0417 36.4853 90.6394 35.7696C94.2372 35.054 97.9663 35.4213 101.355 36.8251C104.744 38.2288 107.641 40.606 109.679 43.656C111.717 46.706 112.805 50.2919 112.805 53.9601C112.799 58.8774 110.844 63.5918 107.366 67.0688C103.889 70.5459 99.175 72.5016 94.2577 72.5069ZM94.2577 36.4099C90.7866 36.4099 87.3935 37.4392 84.5074 39.3676C81.6213 41.2961 79.3718 44.037 78.0435 47.2439C76.7151 50.4508 76.3676 53.9795 77.0448 57.3839C77.7219 60.7884 79.3934 63.9155 81.8479 66.3699C84.3023 68.8244 87.4295 70.4959 90.8339 71.173C94.2383 71.8502 97.767 71.5027 100.974 70.1743C104.181 68.846 106.922 66.5965 108.85 63.7104C110.779 60.8243 111.808 57.4312 111.808 53.9601C111.803 49.3071 109.952 44.8462 106.662 41.556C103.372 38.2659 98.9107 36.4152 94.2577 36.4099Z" fill="#D1D3D4"/>
<path d="M94.2601 54.4575C94.1906 54.4669 94.1202 54.4669 94.0508 54.4575C93.9635 54.4171 93.8898 54.3523 93.8385 54.271C93.7872 54.1896 93.7606 54.0952 93.7618 53.999V42.1096C93.7618 41.9774 93.8143 41.8507 93.9077 41.7572C94.0012 41.6638 94.1279 41.6113 94.2601 41.6113C94.3914 41.6138 94.5167 41.6671 94.6096 41.76C94.7025 41.8529 94.7558 41.9782 94.7584 42.1096V52.8231L99.4125 48.5377C99.4592 48.4878 99.5156 48.448 99.5783 48.4209C99.641 48.3937 99.7086 48.3798 99.7769 48.3798C99.8452 48.3799 99.9128 48.394 99.9754 48.4213C100.038 48.4486 100.094 48.4885 100.141 48.5385C100.188 48.5885 100.223 48.6475 100.246 48.7119C100.269 48.7763 100.278 48.8447 100.273 48.9129C100.269 48.981 100.25 49.0475 100.218 49.1081C100.187 49.1687 100.143 49.2222 100.09 49.2652L94.569 54.298C94.488 54.3858 94.3786 54.4423 94.2601 54.4575Z" fill="#D1D3D4"/>
</svg>
